<?xml version="1.0" encoding="UTF-8"?>
<svg version="1.1" xmlns="http://www.w3.org/2000/svg" width="1024" height="1024">
<path d="M0 0 C337.92 0 675.84 0 1024 0 C1024 337.92 1024 675.84 1024 1024 C686.08 1024 348.16 1024 0 1024 C0 686.08 0 348.16 0 0 Z " fill="#FDFEFE" transform="translate(0,0)"/>
<path d="M0 0 C0.888013 -0.00100708 1.776026 -0.00201416 2.69094849 -0.00305176 C30.54522304 0.01736772 58.38119331 1.34267727 86.20932198 2.42598152 C112.9674091 3.46655271 139.73007421 4.37829833 166.4924202 5.30131531 C173.02158139 5.52670284 179.55070671 5.7531244 186.07983398 5.97949219 C198.32402537 6.4038827 210.56824992 6.82730645 222.8125 7.25 C222.83999649 11.29632005 222.84217788 15.01572618 221.9296875 18.96484375 C221.63807739 20.22917236 221.63807739 20.22917236 221.34057617 21.51904297 C221.12506104 22.39963379 220.9095459 23.28022461 220.6875 24.1875 C220.46231689 25.11191895 220.23713379 26.03633789 220.00512695 26.98876953 C213.26651681 53.74454007 200.99757115 76.03310063 177.125 90.9375 C163.00847229 98.88485108 147.78669474 101.63194605 131.75 101.5625 C131.10464294 101.56200653 130.45928589 101.56151306 129.79437256 101.56100464 C110.675025 101.51808261 91.57513016 100.27097813 72.49223328 99.20365906 C61.96339636 98.61588255 51.43548527 98.07155467 40.8984375 97.65234375 C39.88609039 97.61065567 38.87374329 97.56896759 37.83071899 97.52601624 C30.15631686 97.23608807 22.49178704 97.20881765 14.8125 97.25 C14.24446152 98.38940788 14.24446152 98.38940788 13.66494751 99.55183411 C10.04998154 106.8020209 6.43296089 114.05117838 2.81377602 121.29926014 C0.95435372 125.023266 -0.90434297 128.74762988 -2.76123047 132.47290039 C-47.71894218 222.65908083 -47.71894218 222.65908083 -85.859375 237.2421875 C-105.77492035 243.27295123 -127.23415009 240.954115 -147.1875 236.25 C-148.07711426 236.04149414 -148.96672852 235.83298828 -149.88330078 235.61816406 C-165.55481609 231.87068979 -165.55481609 231.87068979 -172.1875 228.25 C-170.70805545 224.33651368 -168.91433788 220.699921 -166.94921875 217.0078125 C-166.47407585 216.11393326 -166.47407585 216.11393326 -165.98933411 215.20199585 C-164.95431613 213.25799571 -163.91495615 211.31636238 -162.875 209.375 C-162.51680176 208.70428467 -162.15860352 208.03356934 -161.78955078 207.3425293 C-156.7025688 197.82111949 -151.48374178 188.38705159 -146.1237793 179.01611328 C-141.65878106 171.17310396 -137.41003682 163.22501388 -133.1875 155.25 C-127.97988833 145.41449658 -122.64770168 135.67294608 -117.12109375 126.01171875 C-112.29620626 117.53556506 -107.72543687 108.9331794 -103.16278076 100.31430054 C-98.16080927 90.87163241 -93.01195914 81.52994833 -87.70581055 72.25366211 C-84.33319239 66.33905497 -81.12317619 60.36200062 -78 54.3125 C-65.5373713 30.34956905 -51.22599919 10.7545557 -24.60546875 2.23046875 C-16.42515963 -0.11611135 -8.44169921 0.00681485 0 0 Z " fill="#009C70" transform="translate(574.1875,294.75)"/>
<path d="M0 0 C10.28398208 9.0961615 17.00910361 20.82386902 23.11743164 32.98095703 C23.74780382 34.21889558 24.37885645 35.45648783 25.01051331 36.69377136 C27.13282289 40.8613852 29.23285173 45.04006232 31.33227539 49.21923828 C32.12471539 50.79352848 32.91725969 52.36776617 33.7098999 53.94195557 C39.31113553 65.0720465 44.88033025 76.21802735 50.44116211 87.36834717 C52.69304519 91.8825617 54.94735049 96.39556635 57.20141602 100.90869141 C61.58066074 109.67773098 65.95734753 118.44804428 70.33227539 127.21923828 C78.62736912 127.30722951 86.85324891 127.04845223 95.13305664 126.56298828 C97.63674309 126.42474428 100.14048954 126.28758377 102.64428711 126.15136719 C104.60105377 126.04468719 104.60105377 126.04468719 106.59735107 125.93585205 C129.30155328 124.71269559 151.96574681 123.89607843 174.70727539 123.84423828 C175.8456485 123.83674561 176.98402161 123.82925293 178.15689087 123.8215332 C205.09747895 123.67455648 229.73138382 127.55103587 250.07055664 146.97314453 C250.81692383 147.71435547 251.56329102 148.45556641 252.33227539 149.21923828 C253.34354492 150.16089844 253.34354492 150.16089844 254.37524414 151.12158203 C268.57773315 165.43746417 278.25588839 191.26395866 278.34643555 211.36230469 C278.3417627 212.30509277 278.33708984 213.24788086 278.33227539 214.21923828 C263.42155444 215.11053187 248.50630285 215.58993971 233.57644653 216.03491211 C214.84165137 216.59524003 196.10935022 217.16177325 177.39477539 218.21923828 C176.67078552 218.26006531 175.94679565 218.30089233 175.2008667 218.34295654 C174.47707825 218.38382385 173.75328979 218.42469116 173.00756836 218.46679688 C171.53768446 218.54973818 170.06779511 218.63258282 168.59790039 218.71533203 C167.86963043 218.75638062 167.14136047 218.7974292 166.39102173 218.83972168 C136.73947754 220.48424425 107.02564912 221.68258618 77.33227539 222.21923828 C76.56147644 222.23361938 75.79067749 222.24800049 74.996521 222.26281738 C70.1404487 222.35024762 65.28480148 222.4135042 60.42807007 222.44940186 C58.89939391 222.46232859 57.37074839 222.48003676 55.8421936 222.50323486 C42.72616749 222.68986781 29.94715877 221.58589699 17.89477539 215.90673828 C16.89232788 215.45053101 16.89232788 215.45053101 15.86962891 214.98510742 C10.81109953 212.61127586 6.52146963 209.88478324 2.33227539 206.21923828 C1.74446289 205.77193359 1.15665039 205.32462891 0.55102539 204.86376953 C-7.80817609 198.31939468 -12.77371944 188.63068847 -17.66772461 179.40673828 C-18.21678467 178.38338379 -18.76584473 177.3600293 -19.33154297 176.30566406 C-24.03953091 167.49264914 -28.61886559 158.61346066 -33.18991089 149.72894287 C-38.67446506 139.07081169 -44.35432913 128.53132795 -50.13012695 118.02832031 C-52.96106325 112.85640018 -55.75054445 107.66215346 -58.54272461 102.46923828 C-59.12731445 101.38247803 -59.7119043 100.29571777 -60.31420898 99.17602539 C-61.50337012 96.96494931 -62.69233399 94.75376712 -63.88110352 92.54248047 C-69.13761382 82.7649978 -74.40008003 72.99072657 -79.66772461 63.21923828 C-80.20220215 62.22746582 -80.73667969 61.23569336 -81.28735352 60.21386719 C-87.79611421 48.14332944 -94.36168443 36.10486309 -100.98022461 24.09423828 C-101.30698181 23.50057465 -101.63373901 22.90691101 -101.97039795 22.29525757 C-106.38943566 14.26927205 -106.38943566 14.26927205 -110.92700195 6.31005859 C-111.48353706 5.34835251 -111.48353706 5.34835251 -112.05131531 4.36721802 C-112.76844561 3.13144144 -113.48933512 1.89783673 -114.21443176 0.66671753 C-116.66772461 -3.56036107 -116.66772461 -3.56036107 -116.66772461 -5.78076172 C-80.152404 -21.66410746 -32.59485951 -27.95587171 0 0 Z " fill="#0089C0" transform="translate(519.667724609375,40.78076171875)"/>
<path d="M0 0 C1.33422852 1.8347168 1.33422852 1.8347168 2.87890625 4.44921875 C3.46124023 5.42705322 4.04357422 6.4048877 4.64355469 7.41235352 C5.27680664 8.49315186 5.91005859 9.5739502 6.5625 10.6875 C7.22797852 11.81019287 7.89345703 12.93288574 8.57910156 14.08959961 C10.72994825 17.72023109 12.86562424 21.35966922 15 25 C15.68790807 26.17159658 16.37589516 27.34314677 17.06396484 28.51464844 C19.83884264 33.24064976 22.61069963 37.96840786 25.37695312 42.69946289 C30.73607945 51.86284551 36.13833754 60.99997812 41.5625 70.125 C41.96039734 70.7944162 42.35829468 71.4638324 42.76824951 72.15353394 C44.35791274 74.82774093 45.94773699 77.50185206 47.5378418 80.17579651 C51.48974636 86.82186771 55.43344358 93.47278766 59.375 100.125 C60.03338867 101.23609131 60.69177734 102.34718262 61.37011719 103.49194336 C65.35624226 110.22065449 69.33610342 116.95303651 73.3125 123.6875 C78.3650716 132.24313435 83.43075518 140.79095387 88.50228882 149.33535767 C89.31671497 150.70750188 90.13103072 152.07971163 90.94522095 153.45199585 C95.57440058 161.25364054 100.21814092 169.04621759 104.8916626 176.82139587 C115.69727584 194.8003653 124.30978656 210.07023902 119.5625 231.5625 C114.91893357 249.37950064 104.65922992 265.01738112 95.23454285 280.61767578 C91.63549267 286.58312219 88.1278426 292.60065696 84.62127686 298.62075806 C78.29963647 309.4679816 71.84979406 320.22898695 65.30300903 330.94161987 C60.24473299 339.22480156 55.31914041 347.57481314 50.5 356 C45.00215342 365.61175247 39.33574077 375.10680288 33.56082153 384.55325317 C27.20643515 394.95152215 21.00801131 405.43490016 14.88330078 415.9699707 C10.87319237 422.85496211 6.773502 429.67075059 2.56860352 436.43774414 C1.02934147 438.86999483 1.02934147 438.86999483 0 441 C-20.02280742 434.04509431 -37.3447016 410.94390916 -46.8125 393.0625 C-57.25709165 371.34938141 -57.52988435 348.66524172 -49.703125 326.29296875 C-45.09536832 314.34664542 -37.86299833 303.74397115 -30.95654297 293.03417969 C-28.526459 289.26563919 -26.120262 285.48222104 -23.71508789 281.69775391 C-22.56861525 279.89440548 -21.42065735 278.09200046 -20.27124023 276.29052734 C-15.34151502 268.56150398 -10.47575836 260.79340909 -5.640625 253.00488281 C-2.45090856 247.87687755 0.78021368 242.78342322 4.09375 237.734375 C4.74923828 236.72890625 5.40472656 235.7234375 6.08007812 234.6875 C7.33390121 232.76913792 8.59781809 230.85732482 9.87304688 228.953125 C10.43056641 228.0971875 10.98808594 227.24125 11.5625 226.359375 C12.30693359 225.23740723 12.30693359 225.23740723 13.06640625 224.09277344 C14.18560885 222.06179645 14.18560885 222.06179645 13.76000977 219.92724609 C12.49512842 216.71973779 10.7083141 213.82133473 8.9375 210.875 C8.50195801 210.14273193 8.06641602 209.41046387 7.61767578 208.65600586 C1.56044712 198.52087916 -4.66578257 188.48725492 -10.87255859 178.44335938 C-16.36202555 169.56000794 -21.83869901 160.6687715 -27.30078125 151.76855469 C-28.34131719 150.07319872 -29.3827644 148.3784011 -30.42578125 146.68457031 C-33.00654979 142.48782518 -35.53665879 138.26675459 -38 134 C-38.38236816 133.34306152 -38.76473633 132.68612305 -39.15869141 132.00927734 C-51.09638903 111.28404065 -56.92967849 88.14876462 -51.03515625 64.43359375 C-47.63548071 53.15693414 -43.09536688 43.48691512 -36 34 C-35.37996094 33.15695313 -34.75992187 32.31390625 -34.12109375 31.4453125 C-29.16506817 25.06358093 -23.55821663 19.35650615 -17.875 13.625 C-17.11074707 12.85140137 -16.34649414 12.07780273 -15.55908203 11.28076172 C-4.21443449 0 -4.21443449 0 0 0 Z " fill="#579E47" transform="translate(363,61)"/>
<path d="M0 0 C1.65688303 1.4970946 3.30533079 3.00363136 4.94140625 4.5234375 C7.22654027 6.65071873 7.22654027 6.65071873 9.98046875 8.703125 C10.71136719 9.31800781 11.44226563 9.93289063 12.1953125 10.56640625 C12.1953125 11.22640625 12.1953125 11.88640625 12.1953125 12.56640625 C13.1853125 12.89640625 14.1753125 13.22640625 15.1953125 13.56640625 C15.1953125 14.22640625 15.1953125 14.88640625 15.1953125 15.56640625 C15.8553125 15.56640625 16.5153125 15.56640625 17.1953125 15.56640625 C13.89824024 23.44677127 5.63459464 29.27414499 -0.734375 34.71484375 C-4.12346172 37.74583829 -7.26672495 41.02025897 -10.4609375 44.25390625 C-13.12317869 46.88065089 -15.87149127 49.25072502 -18.8046875 51.56640625 C-22.15385684 50.13210415 -24.06368974 48.38097984 -26.4921875 45.69140625 C-46.02859245 25.9008692 -73.55090542 13.63720658 -101.30981445 13.32495117 C-117.2730886 13.26919126 -117.2730886 13.26919126 -132.8046875 16.56640625 C-133.95453125 16.90671875 -135.104375 17.24703125 -136.2890625 17.59765625 C-160.28887853 25.35305532 -177.32718825 42.52419371 -189.23828125 64.171875 C-190.60924151 66.92660822 -191.73385463 69.68090695 -192.8046875 72.56640625 C-193.03317383 73.17532715 -193.26166016 73.78424805 -193.49707031 74.41162109 C-200.32364345 93.42718376 -200.73705216 117.24452778 -194.8046875 136.56640625 C-194.45277344 137.74589844 -194.10085937 138.92539062 -193.73828125 140.140625 C-189.51094981 153.04584475 -182.74571344 163.43324351 -173.8046875 173.56640625 C-173.26457031 174.20191406 -172.72445312 174.83742188 -172.16796875 175.4921875 C-158.16274082 190.83796622 -134.89577783 199.46810035 -114.58300781 200.7734375 C-81.66066261 202.0869537 -55.72650962 194.07911119 -30.8046875 172.56640625 C-30.00546875 171.88964844 -29.20625 171.21289062 -28.3828125 170.515625 C-24.57533516 167.46291848 -24.57533516 167.46291848 -21.8046875 163.56640625 C-17.09521254 164.99742642 -14.24728186 167.74599462 -10.91015625 171.203125 C-10.35910721 171.76079056 -9.80805817 172.31845612 -9.24031067 172.89302063 C-7.48365734 174.67299106 -5.73746961 176.46279088 -3.9921875 178.25390625 C-1.69786358 180.59495513 0.60083785 182.93163742 2.90234375 185.265625 C3.45093048 185.82289276 3.99951721 186.38016052 4.56472778 186.95431519 C8.6026245 191.03146743 12.7699807 194.90872548 17.1953125 198.56640625 C15.33885937 202.62520188 12.65595212 205.23337664 9.3828125 208.19140625 C8.8038623 208.71774658 8.22491211 209.24408691 7.62841797 209.78637695 C-2.71004032 219.06860574 -13.64922374 226.83748881 -25.8046875 233.56640625 C-26.44277344 233.91977051 -27.08085937 234.27313477 -27.73828125 234.63720703 C-44.61657171 243.83621494 -61.92094001 248.43300595 -80.8046875 251.56640625 C-82.22285767 251.8301001 -82.22285767 251.8301001 -83.66967773 252.09912109 C-119.82397959 257.48805761 -162.02944973 248.67759441 -191.75830078 227.15185547 C-222.57764395 203.84542594 -242.5279863 173.70504879 -249.8046875 135.56640625 C-250.03027344 134.40625 -250.25585938 133.24609375 -250.48828125 132.05078125 C-254.31110977 108.53379478 -252.48827088 83.12228152 -244.8046875 60.56640625 C-244.59473145 59.93959961 -244.38477539 59.31279297 -244.16845703 58.66699219 C-236.94412947 37.35601286 -225.45134358 19.65947191 -209.8046875 3.56640625 C-209.26755127 3.00663086 -208.73041504 2.44685547 -208.17700195 1.87011719 C-153.13930309 -54.58118153 -57.29815958 -49.71692677 0 0 Z " fill="#007FB3" transform="translate(344.8046875,627.43359375)"/>
<path d="M0 0 C50.82 0 101.64 0 154 0 C154 16.83 154 33.66 154 51 C121 51 88 51 54 51 C54 66.84 54 82.68 54 99 C86.67 99 119.34 99 153 99 C153 116.49 153 133.98 153 152 C120.33 152 87.66 152 54 152 C54 176.09 54 200.18 54 225 C86.67 225.33 119.34 225.66 153 226 C153 242.5 153 259 153 276 C102.51 276 52.02 276 0 276 C0 184.92 0 93.84 0 0 Z " fill="#007FB3" transform="translate(390,595)"/>
<path d="M0 0 C50.16 0 100.32 0 152 0 C152 16.83 152 33.66 152 51 C119.66 51 87.32 51 54 51 C54 66.84 54 82.68 54 99 C86.34 99 118.68 99 152 99 C152 116.49 152 133.98 152 152 C119.66 152 87.32 152 54 152 C54 176.42 54 200.84 54 226 C86.34 226 118.68 226 152 226 C152 242.5 152 259 152 276 C101.84 276 51.68 276 0 276 C0 184.92 0 93.84 0 0 Z " fill="#007FB3" transform="translate(585,595)"/>
<path d="M0 0 C3.51984528 2.82520719 6.77433353 5.84556276 10 9 C10.94101562 9.90234375 11.88203125 10.8046875 12.8515625 11.734375 C23.43260767 21.99413697 23.43260767 21.99413697 27 28 C27 28.66 27 29.32 27 30 C25.48848454 31.35097374 23.91186687 32.62927345 22.3125 33.875 C17.81321629 37.46978853 13.52135572 41.19509258 9.3125 45.125 C3.04334553 50.97082355 -3.28542598 56.66513297 -10 62 C-11.16015625 60.60587891 -11.16015625 60.60587891 -12.34375 59.18359375 C-22.66178479 46.88866935 -32.63926795 35.75073175 -49.37109375 33.7109375 C-56.22055221 33.30488536 -61.36875593 35.1163834 -67 39 C-71.33538671 43.01291993 -74.68549991 47.27433258 -75.375 53.25 C-73.96355408 67.36445917 -60.05596889 77.09724121 -49.83056641 85.51513672 C-46.34544822 88.34208908 -42.80674815 91.09962441 -39.26000977 93.84863281 C-34.36428756 97.66106085 -29.65807765 101.66844151 -24.96875 105.73046875 C-21.69823739 108.55902019 -18.39515883 111.32048739 -15 114 C9.78136793 133.64575549 29.66329112 154.27942873 34 187 C35.92795637 208.26540327 30.13916389 227.7487383 16.97265625 244.59375 C3.81301058 260.01409429 -15.70179579 270.87766766 -36 273 C-52.76520758 274.16887445 -69.18610901 274.13191691 -85 268 C-85.73492676 267.71592285 -86.46985352 267.4318457 -87.22705078 267.13916016 C-97.70082273 262.9373534 -106.48437123 257.36552948 -115 250 C-115.6496875 249.45085937 -116.299375 248.90171875 -116.96875 248.3359375 C-126.75911226 239.33065146 -135.58629536 226.09729062 -141 214 C-139.54512618 209.63537855 -136.18747443 208.70059049 -132.3125 206.6875 C-123.65447667 202.06693361 -115.4327979 196.90523119 -107.26293945 191.47143555 C-106.37437256 190.89047119 -105.48580566 190.30950684 -104.5703125 189.7109375 C-103.78414551 189.18806152 -102.99797852 188.66518555 -102.18798828 188.12646484 C-100 187 -100 187 -96 187 C-94.45519601 189.06789604 -93.2061443 191.02133965 -91.9375 193.25 C-84.99305521 204.66538609 -76.92701955 213.58499422 -65 220 C-63.88625 220.61875 -62.7725 221.2375 -61.625 221.875 C-52.68126283 224.65064257 -43.57676877 225.05340442 -35 221 C-27.43287774 216.47038457 -21.70350739 210.53739177 -19 202 C-17.694228 192.70035548 -20.468641 184.09918628 -25.9375 176.5625 C-33.40916559 167.64419277 -42.50755563 160.22298137 -51.69091797 153.14941406 C-56.5877629 149.36925059 -61.28483968 145.39111912 -65.95849609 141.33984375 C-69.44137888 138.32402171 -72.96933635 135.38494588 -76.5625 132.5 C-82.97552839 127.27943809 -89.0081263 121.69315347 -95 116 C-95.56041992 115.4735791 -96.12083984 114.9471582 -96.69824219 114.40478516 C-113.93875828 98.13968022 -127.57675557 77.70025871 -128.4375 53.3125 C-127.59391447 34.75361835 -119.88368669 16.82522171 -106.36328125 4.0546875 C-76.23609206 -22.13853814 -32.29447697 -22.80823214 0 0 Z " fill="#007FB2" transform="translate(902,605)"/>
<path d="M0 0 C0.99 0.33 1.98 0.66 3 1 C4.04718798 3.31254012 5.04346365 5.6485148 6 8 C6.99627822 9.33611657 7.99698171 10.66893573 9 12 C10.38456615 14.300299 11.73711784 16.60394217 13.0625 18.9375 C13.5894043 19.84918945 13.5894043 19.84918945 14.12695312 20.77929688 C15.64454775 23.43867347 17.00046618 26.00126779 18.05859375 28.87890625 C18.36925781 29.57886719 18.67992187 30.27882812 19 31 C19.99 31.33 20.98 31.66 22 32 C23.03515625 33.72265625 23.03515625 33.72265625 24.0625 36.0625 C26.37153692 40.93946587 29.05500928 45.44962615 31.9375 50 C32.3718335 50.68731201 32.80616699 51.37462402 33.25366211 52.08276367 C34.10669992 53.43095838 34.96043984 54.77870913 35.81494141 56.12597656 C37.44006883 58.69591437 39.04127887 61.27935253 40.625 63.875 C41.09164062 64.63554687 41.55828125 65.39609375 42.0390625 66.1796875 C43 68 43 68 43 70 C43.66 70 44.32 70 45 70 C45.79275148 71.4160599 46.58415312 72.83287553 47.375 74.25 C47.81585938 75.03890625 48.25671875 75.8278125 48.7109375 76.640625 C49.85747823 78.73914197 50.94649552 80.8536077 52 83 C53.32 82.67 54.64 82.34 56 82 C55.70609375 83.81951172 55.70609375 83.81951172 55.40625 85.67578125 C54.71961342 91.96954117 55.59783463 97.95163513 56.5 104.1875 C56.67942139 105.44763916 56.85884277 106.70777832 57.04370117 108.00610352 C62.18015853 142.19346708 71.28976844 179.86668073 90.53466797 209.10693359 C91.61328125 210.828125 91.61328125 210.828125 93 214 C91.91529756 218.36694002 90.04342754 221.88626636 87.68359375 225.69140625 C86.67365356 227.33399414 86.67365356 227.33399414 85.64331055 229.00976562 C85.28441742 229.58766846 84.92552429 230.16557129 84.55575562 230.76098633 C82.62259315 233.87531776 80.71036491 237.00246267 78.796875 240.12890625 C78.40022141 240.77614655 78.00356781 241.42338684 77.59489441 242.09024048 C73.3663075 249.00599217 69.2700709 255.99738687 65.1875 263 C63.77790491 265.41569254 62.36776302 267.83106484 60.95703125 270.24609375 C60.61962418 270.82374481 60.2822171 271.40139587 59.93458557 271.99655151 C56.3135608 278.18740869 52.62138704 284.33472604 48.91967773 290.47753906 C45.22082564 296.6180914 41.58381677 302.79141602 38 309 C17.97719258 302.04509431 0.6552984 278.94390916 -8.8125 261.0625 C-19.25709165 239.34938141 -19.52988435 216.66524172 -11.703125 194.29296875 C-7.09536832 182.34664542 0.13700167 171.74397115 7.04345703 161.03417969 C9.473541 157.26563919 11.879738 153.48222104 14.28491211 149.69775391 C15.43138475 147.89440548 16.57934265 146.09200046 17.72875977 144.29052734 C22.65848498 136.56150398 27.52424164 128.79340909 32.359375 121.00488281 C35.54909144 115.87687755 38.78021368 110.78342322 42.09375 105.734375 C42.74923828 104.72890625 43.40472656 103.7234375 44.08007812 102.6875 C45.33390121 100.76913792 46.59781809 98.85732482 47.87304688 96.953125 C48.43056641 96.0971875 48.98808594 95.24125 49.5625 94.359375 C50.05878906 93.61139648 50.55507813 92.86341797 51.06640625 92.09277344 C52.18560885 90.06179645 52.18560885 90.06179645 51.76000977 87.92724609 C50.49512842 84.71973779 48.7083141 81.82133473 46.9375 78.875 C46.50195801 78.14273193 46.06641602 77.41046387 45.61767578 76.65600586 C39.56044712 66.52087916 33.33421743 56.48725492 27.12744141 46.44335938 C21.06876212 36.63887786 15.02656012 26.82425766 9 17 C8.48163574 16.15614746 7.96327148 15.31229492 7.42919922 14.44287109 C6.11433349 12.29831837 4.80563095 10.15018337 3.5 8 C3.13205322 7.40098877 2.76410645 6.80197754 2.38500977 6.18481445 C0 2.23161169 0 2.23161169 0 0 Z " fill="#089E56" transform="translate(325,193)"/>
<path d="M0 0 C2.49977543 3.33303391 3 4.73303602 3 9 C3.66 9 4.32 9 5 9 C6.01351664 10.65848177 7.01120795 12.32665961 8 14 C8.6069873 14.57661377 9.21397461 15.15322754 9.83935547 15.74731445 C12.47119636 18.49126879 14.29843542 21.52713432 16.1953125 24.79296875 C16.58462448 25.45200699 16.97393646 26.11104523 17.37504578 26.79005432 C18.63090069 28.91914369 19.8781247 31.05314163 21.125 33.1875 C21.98607294 34.65231187 22.84764645 36.11682959 23.7097168 37.58105469 C25.39358501 40.44277371 27.07426521 43.30632643 28.75244141 46.17138672 C30.57488704 49.28025336 32.41226341 52.3797579 34.26171875 55.47265625 C44.79021135 73.09180549 53.42757851 88.54845795 48.5625 109.5625 C43.92655255 127.37933245 33.6575982 143.02008205 24.23454285 158.61767578 C20.63430511 164.58509058 17.12564161 170.604678 13.61798096 176.62680054 C7.37985146 187.32844102 1.0463159 197.96978242 -5.375 208.5625 C-5.74011688 209.16617401 -6.10523376 209.76984802 -6.48141479 210.39181519 C-7.51379149 212.09733959 -8.5497875 213.80067159 -9.5859375 215.50390625 C-10.46838135 216.95518921 -10.46838135 216.95518921 -11.36865234 218.43579102 C-12.81885971 220.7152774 -14.34362402 222.86745521 -16 225 C-31.73449508 204.45260055 -39.69693204 176.66194117 -46 152 C-46.23847656 151.08524902 -46.47695313 150.17049805 -46.72265625 149.22802734 C-49.71843675 137.59797948 -51.74735437 125.88917811 -53.375 114 C-53.55506592 112.70489502 -53.73513184 111.40979004 -53.9206543 110.07543945 C-54.07832275 108.85429443 -54.23599121 107.63314941 -54.3984375 106.375 C-54.60992432 104.74691406 -54.60992432 104.74691406 -54.82568359 103.0859375 C-55.00839578 99.85136891 -54.75129278 97.14805852 -54 94 C-52.66666667 92.66666667 -51.33333333 91.33333333 -50 90 C-49.1967515 88.49474394 -48.43886205 86.96496599 -47.7109375 85.421875 C-45.24584117 80.38111553 -42.42321063 75.70473738 -39.375 71 C-38.31160979 69.33390118 -37.24913089 67.6672204 -36.1875 66 C-35.65511719 65.16597656 -35.12273437 64.33195312 -34.57421875 63.47265625 C-30.27130272 56.7139817 -26.06095682 49.90704666 -22 43 C-21.55350098 42.24251465 -21.10700195 41.4850293 -20.64697266 40.70458984 C-14.83997525 30.70610718 -10.66428698 21.01736822 -7.88745117 9.7644043 C-7.57384644 8.50430542 -7.57384644 8.50430542 -7.25390625 7.21875 C-7.08189697 6.47560547 -6.9098877 5.73246094 -6.73266602 4.96679688 C-5.35096638 1.25770916 -3.97135415 0 0 0 Z " fill="#60AE4B" transform="translate(434,183)"/>
<path d="M0 0 C10.70191872 8.83818322 18.69219323 21.49598912 20.08837891 35.55981445 C20.98636674 52.63821275 18.00448048 66.79478542 6.546875 80.0625 C-3.46527551 90.609051 -14.97870149 96.71371206 -29.57421875 97.57421875 C-46.60810771 97.79121097 -60.68616604 93.3047202 -73.12890625 81.37109375 C-83.591234 69.46126356 -88.71814629 55.22613572 -88.375 39.44140625 C-87.1872555 24.62287959 -80.58298677 12.67741341 -70.12890625 2.37109375 C-69.56429687 1.79617188 -68.9996875 1.22125 -68.41796875 0.62890625 C-49.08594086 -17.57149074 -20.0553995 -14.94949607 0 0 Z " fill="#009E70" transform="translate(676.12890625,430.62890625)"/>
<path d="M0 0 C13.03263122 9.30137105 21.06659258 22.28681446 23.8515625 38.03515625 C25.54743145 54.31389826 21.55324057 68.63062512 11.78125 81.83203125 C2.63515686 92.64999088 -9.21625459 98.75612633 -23.1484375 101.03515625 C-39.21812232 102.14341038 -54.09950009 97.29206401 -66.5234375 86.91015625 C-77.34451622 76.40943841 -83.10073113 63.24362846 -83.61694336 48.29638672 C-83.80692238 31.64008684 -79.46341799 18.62114982 -67.9609375 6.28515625 C-48.59196114 -12.03507689 -22.2943552 -13.85308879 0 0 Z " fill="#218745" transform="translate(315.1484375,233.96484375)"/>
<path d="M0 0 C11.46578197 8.55027751 19.62267848 20.28959124 22 34.6875 C22.28234533 37.98507393 22.33420428 41.25401221 22.3125 44.5625 C22.30512817 45.88967041 22.30512817 45.88967041 22.29760742 47.24365234 C22.18507288 53.50057291 21.58679154 58.92743786 19 64.6875 C18.67128906 65.49960938 18.34257813 66.31171875 18.00390625 67.1484375 C12.56152311 79.38909162 2.16276993 89.21671752 -10.0625 94.5 C-23.333332 99.56189828 -37.48487237 101.0860007 -51 95.6875 C-65.38874118 89.24059648 -75.45550931 81.44992075 -81.9375 66.5625 C-87.45415475 51.8767846 -87.71654456 37.28233872 -81.78125 22.69140625 C-75.70261069 9.43659553 -65.43488593 -0.65173346 -52 -6.3125 C-51.33226562 -6.61285156 -50.66453125 -6.91320313 -49.9765625 -7.22265625 C-33.55555042 -13.41654677 -14.14788583 -9.60188071 0 0 Z " fill="#0086BC" transform="translate(673,41.3125)"/>
<path d="M0 0 C0.33 0 0.66 0 1 0 C1 16.83 1 33.66 1 51 C-32 51 -65 51 -99 51 C-99 66.84 -99 82.68 -99 99 C-66.33 99 -33.66 99 0 99 C0 116.49 0 133.98 0 152 C-32.67 152 -65.34 152 -99 152 C-99 176.09 -99 200.18 -99 225 C-50.49 225.495 -50.49 225.495 -1 226 C-1 226.66 -1 227.32 -1 228 C-13.89072255 228.0231211 -26.7814402 228.04091389 -39.67217922 228.05181217 C-45.65719266 228.05704151 -51.64219196 228.06414008 -57.62719727 228.07543945 C-63.39783429 228.08626653 -69.16845768 228.09227645 -74.93910408 228.09487724 C-77.14602943 228.09673182 -79.352954 228.10035304 -81.55987358 228.10573006 C-84.63946041 228.1129381 -87.71899014 228.11399104 -90.79858398 228.11352539 C-91.72071182 228.11712067 -92.64283966 228.12071594 -93.59291077 228.12442017 C-99.88594784 228.11405216 -99.88594784 228.11405216 -101 227 C-101.10025695 224.63238425 -101.13618935 222.29392927 -101.12939453 219.92578125 C-101.13114685 219.18597015 -101.13289917 218.44615906 -101.13470459 217.68392944 C-101.1391231 215.22676277 -101.13618513 212.76966747 -101.1328125 210.3125 C-101.13348554 208.61238593 -101.13445557 206.91227195 -101.13571167 205.2121582 C-101.13718864 201.64435919 -101.13503411 198.07658517 -101.13037109 194.50878906 C-101.1246738 189.92511506 -101.12795281 185.34149961 -101.13394356 180.75782776 C-101.13754919 177.24580439 -101.13641057 173.73379502 -101.13381577 170.22177124 C-101.1331465 168.53119907 -101.13397489 166.84062564 -101.13629532 165.15005493 C-101.13882189 162.79140843 -101.13498121 160.43285805 -101.12939453 158.07421875 C-101.13141876 157.36872894 -101.13344299 156.66323914 -101.13552856 155.93637085 C-101.11426271 151.11426271 -101.11426271 151.11426271 -100 150 C-96.92545239 149.90467672 -93.87340842 149.8744862 -90.79858398 149.88647461 C-89.34995972 149.88625557 -89.34995972 149.88625557 -87.87207031 149.8860321 C-84.66338901 149.88673166 -81.45476497 149.89452603 -78.24609375 149.90234375 C-76.02791882 149.90420778 -73.80974348 149.90563175 -71.59156799 149.90663147 C-65.74059929 149.91045784 -59.88965523 149.92028914 -54.03869629 149.93133545 C-47.02532714 149.94334098 -40.01194978 149.94795124 -32.9985733 149.95378876 C-22.33236504 149.96350084 -11.6662109 149.98265657 -1 150 C-1 133.5 -1 117 -1 100 C-33.67 100 -66.34 100 -100 100 C-100 83.5 -100 67 -100 50 C-67 50 -34 50 0 50 C0 33.5 0 17 0 0 Z " fill="#2884B4" transform="translate(543,595)"/>
<path d="M0 0 C4.28424135 3.03031705 7.30727552 6.67749078 8.5625 11.8125 C8.65805978 18.14068106 7.85526965 22.92351234 3.5625 27.8125 C-1.59446504 31.55129965 -6.1110131 32.33970724 -12.4375 31.8125 C-18.25419066 29.90984418 -21.51412874 27.30843796 -24.4375 21.8125 C-25.95660761 17.25517716 -26.4028845 13.11361047 -24.53125 8.65234375 C-18.85763116 -1.07645779 -10.60786222 -3.66453422 0 0 Z " fill="#0572A4" transform="translate(314.4375,915.1875)"/>
<path d="M0 0 C4.39268715 2.4950463 6.90108533 5.83085144 8.75 10.5 C9.90215012 15.7611457 8.58925677 20.09766301 6.02734375 24.73828125 C3.37902151 28.39086025 -0.06841508 30.10613836 -4.25 31.5 C-10.3359805 32.34027344 -14.57515549 31.4952913 -19.58984375 27.90625 C-23.41186828 24.6687704 -24.42040822 21.51132716 -25.1875 16.6875 C-25.54985704 11.39393629 -24.60099794 7.65192327 -21.25 3.5 C-14.94302927 -2.33820939 -7.86326213 -3.29606664 0 0 Z " fill="#0671A4" transform="translate(150.25,915.5)"/>
<path d="M0 0 C15 0 15 0 21 3 C25.67177612 8.176833 26.35280455 11.39587698 26.28125 18.23828125 C25.75919674 23.36455419 23.12436465 25.98532946 19.4375 29.3125 C12.94934931 33.80429663 9.37682114 32 0 32 C0 21.44 0 10.88 0 0 Z " fill="#0874A6" transform="translate(887,914)"/>
<path d="M0 0 C16.78571429 0 16.78571429 0 22.8125 5.625 C25.7163173 9.42157667 26.27051532 13.29780719 26 18 C25.13157286 22.31928237 23.76965673 25.20954174 20.6875 28.375 C13.36480899 32.80267363 9.4330098 32 0 32 C0 21.44 0 10.88 0 0 Z " fill="#0071A4" transform="translate(427,914)"/>
<path d="M0 0 C4.95 0 9.9 0 15 0 C20 5 20 5 20.55859375 7.09765625 C20.11093161 14.36133549 20.11093161 14.36133549 18 17 C15.921875 17.59765625 15.921875 17.59765625 14 18 C14.49371094 18.75925781 14.98742187 19.51851562 15.49609375 20.30078125 C16.45708984 21.79158203 16.45708984 21.79158203 17.4375 23.3125 C18.07558594 24.29863281 18.71367187 25.28476562 19.37109375 26.30078125 C21 29 21 29 22 32 C16.97927461 33.05699482 16.97927461 33.05699482 14 32 C11.09197971 28.28208247 9.02480752 24.2520958 7 20 C6.67 23.96 6.34 27.92 6 32 C4.02 32 2.04 32 0 32 C0 21.44 0 10.88 0 0 Z " fill="#016BA0" transform="translate(327,914)"/>
<path d="M0 0 C5.62575728 1.12515146 5.62575728 1.12515146 7.9375 3.73046875 C8.44023437 4.28669922 8.94296875 4.84292969 9.4609375 5.41601562 C9.96882812 6.00060547 10.47671875 6.58519531 11 7.1875 C11.50789062 7.75275391 12.01578125 8.31800781 12.5390625 8.90039062 C15.78318468 12.53131198 18.88015191 16.25618229 22 20 C22.33 13.4 22.66 6.8 23 0 C24.98 0 26.96 0 29 0 C29 10.56 29 21.12 29 32 C24 32 24 32 22.33203125 30.63671875 C21.57986328 29.67185547 21.57986328 29.67185547 20.8125 28.6875 C17.83185564 25.01444932 14.75903505 21.48405683 11.5625 18 C10.056875 16.35 8.55125 14.7 7 13 C6.67 19.27 6.34 25.54 6 32 C4.02 32 2.04 32 0 32 C0 21.44 0 10.88 0 0 Z " fill="#016CA0" transform="translate(164,914)"/>
<path d="M0 0 C2.31 0 4.62 0 7 0 C8.71337833 4.23407987 10.42225627 8.46993692 12.12695312 12.70751953 C12.70774363 14.14942616 13.28977 15.59083563 13.87304688 17.03173828 C14.71027311 19.10059835 15.54306709 21.17119419 16.375 23.2421875 C16.63748535 23.88807831 16.8999707 24.53396912 17.17041016 25.19943237 C19 29.77225659 19 29.77225659 19 32 C16.69 32 14.38 32 12 32 C11.34 29.69 10.68 27.38 10 25 C5.71 25 1.42 25 -3 25 C-3.66 27.31 -4.32 29.62 -5 32 C-7.31 32 -9.62 32 -12 32 C-9.70145079 24.86631492 -7.06902585 17.90575116 -4.3125 10.9375 C-3.89677734 9.88111328 -3.48105469 8.82472656 -3.05273438 7.73632812 C-2.03723432 5.15672453 -1.01961715 2.57797839 0 0 Z " fill="#066DA1" transform="translate(523,914)"/>
<path d="M0 0 C2.31 0 4.62 0 7 0 C8.5729434 4.07269123 10.13933576 8.14782243 11.69970703 12.2253418 C12.23144063 13.61209913 12.76495802 14.99817385 13.30029297 16.38354492 C14.06948357 18.37502078 14.83222484 20.36886369 15.59375 22.36328125 C16.05458984 23.56251221 16.51542969 24.76174316 16.99023438 25.99731445 C18 29 18 29 18 32 C16.02 32 14.04 32 12 32 C11.01 30.02 10.02 28.04 9 26 C5.04 26 1.08 26 -3 26 C-3.99 27.98 -4.98 29.96 -6 32 C-7.98 32 -9.96 32 -12 32 C-9.70145079 24.86631492 -7.06902585 17.90575116 -4.3125 10.9375 C-3.89677734 9.88111328 -3.48105469 8.82472656 -3.05273438 7.73632812 C-2.03723432 5.15672453 -1.01961715 2.57797839 0 0 Z " fill="#046FA2" transform="translate(925,914)"/>
<path d="M0 0 C1.98 0 3.96 0 6 0 C9.3534952 6.87698325 12.16261617 13.89003965 14.8125 21.0625 C15.12646729 21.9078833 15.44043457 22.7532666 15.76391602 23.62426758 C16.19982056 24.81765747 16.19982056 24.81765747 16.64453125 26.03515625 C16.90596924 26.7506665 17.16740723 27.46617676 17.43676758 28.20336914 C18 30 18 30 18 32 C15.69 32 13.38 32 11 32 C10.34 30.02 9.68 28.04 9 26 C5.04 26 1.08 26 -3 26 C-3.99 27.98 -4.98 29.96 -6 32 C-7.98 32 -9.96 32 -12 32 C-9.94400621 24.55838512 -7.29150906 17.49231351 -4.3125 10.375 C-3.68891602 8.86873047 -3.68891602 8.86873047 -3.05273438 7.33203125 C-2.03945904 4.88619424 -1.02183204 2.4422715 0 0 Z " fill="#046CA0" transform="translate(867,914)"/>
<path d="M0 0 C1.4540625 0.0309375 1.4540625 0.0309375 2.9375 0.0625 C5.98622126 7.22769743 8.90710287 14.4385111 11.75 21.6875 C12.06396729 22.48140137 12.37793457 23.27530273 12.70141602 24.09326172 C14.9375 29.82760518 14.9375 29.82760518 14.9375 32.0625 C12.6275 32.0625 10.3175 32.0625 7.9375 32.0625 C7.2775 30.0825 6.6175 28.1025 5.9375 26.0625 C1.9775 26.0625 -1.9825 26.0625 -6.0625 26.0625 C-7.0525 28.0425 -8.0425 30.0225 -9.0625 32.0625 C-11.0425 32.0625 -13.0225 32.0625 -15.0625 32.0625 C-14.39629756 28.13950901 -13.24261521 24.63180204 -11.8125 20.921875 C-11.3690625 19.76945313 -10.925625 18.61703125 -10.46875 17.4296875 C-10.0046875 16.23601563 -9.540625 15.04234375 -9.0625 13.8125 C-8.5984375 12.60335937 -8.134375 11.39421875 -7.65625 10.1484375 C-3.76339389 0.07680396 -3.76339389 0.07680396 0 0 Z " fill="#056EA2" transform="translate(615.0625,913.9375)"/>
<path d="M0 0 C2.31 0 4.62 0 7 0 C8.5729434 4.07269123 10.13933576 8.14782243 11.69970703 12.2253418 C12.23144063 13.61209913 12.76495802 14.99817385 13.30029297 16.38354492 C14.06948357 18.37502078 14.83222484 20.36886369 15.59375 22.36328125 C16.05458984 23.56251221 16.51542969 24.76174316 16.99023438 25.99731445 C18 29 18 29 18 32 C16.02 32 14.04 32 12 32 C10.5393715 29.35261084 10 28.10551666 10 25 C5.71 25 1.42 25 -3 25 C-3.66 27.31 -4.32 29.62 -5 32 C-7.31 32 -9.62 32 -12 32 C-9.70145079 24.86631492 -7.06902585 17.90575116 -4.3125 10.9375 C-3.89677734 9.88111328 -3.48105469 8.82472656 -3.05273438 7.73632812 C-2.03723432 5.15672453 -1.01961715 2.57797839 0 0 Z " fill="#076FA3" transform="translate(374,914)"/>
<path d="M0 0 C15 0 15 0 20 4 C21.59689041 7.19378082 21.37348957 10.52521315 21 14 C19.75011855 16.87472735 18.74531416 18.44101438 16.25 20.3125 C13.13143415 21.26539512 10.23765175 21.12452507 7 21 C7 24.63 7 28.26 7 32 C4.69 32 2.38 32 0 32 C0 21.44 0 10.88 0 0 Z " fill="#1178A7" transform="translate(688,914)"/>
<path d="M0 0 C3.125 -0.1875 3.125 -0.1875 6 0 C7.57534229 3.91093197 9.14163145 7.82533146 10.69970703 11.74316406 C11.23077256 13.07487812 11.76428012 14.40562108 12.30029297 15.73535156 C13.07125836 17.6491766 13.83331351 19.56634616 14.59375 21.484375 C15.05458984 22.63647461 15.51542969 23.78857422 15.99023438 24.97558594 C17 28 17 28 17 32 C15.02 32 13.04 32 11 32 C10.34 29.69 9.68 27.38 9 25 C4.71 25 0.42 25 -4 25 C-4.33 26.65 -4.66 28.3 -5 30 C-5.33 30.66 -5.66 31.32 -6 32 C-8.31 32 -10.62 32 -13 32 C-11.47490278 27.92304891 -9.94483288 23.84801002 -8.41015625 19.7746582 C-7.88893244 18.38910398 -7.36906349 17.00303929 -6.85058594 15.61645508 C-6.10448353 13.62184606 -5.35350489 11.62913231 -4.6015625 9.63671875 C-4.15119629 8.43748779 -3.70083008 7.23825684 -3.23681641 6.00268555 C-2 3 -2 3 0 0 Z " fill="#046DA1" transform="translate(783,914)"/>
<path d="M0 0 C1.98 0 3.96 0 6 0 C6.02187378 0.96824707 6.02187378 0.96824707 6.04418945 1.95605469 C6.1187787 4.88796573 6.2154024 7.81875165 6.3125 10.75 C6.33505859 11.76578125 6.35761719 12.7815625 6.38085938 13.828125 C6.41630859 14.8078125 6.45175781 15.7875 6.48828125 16.796875 C6.51446533 17.69760742 6.54064941 18.59833984 6.56762695 19.52636719 C7.08055554 22.46086318 7.92667267 23.87817201 10 26 C13.04230823 26.50010524 13.04230823 26.50010524 16 26 C18.60088622 23.39911378 18.29962225 22.17862887 18.4140625 18.5546875 C18.45273438 17.47832031 18.49140625 16.40195312 18.53125 15.29296875 C18.57765625 13.60107422 18.57765625 13.60107422 18.625 11.875 C18.66367188 10.73933594 18.70234375 9.60367188 18.7421875 8.43359375 C18.83667601 5.62256044 18.92223541 2.81153767 19 0 C21.31 0 23.62 0 26 0 C26.08782542 3.52067351 26.14066643 7.04106144 26.1875 10.5625 C26.21263672 11.55314453 26.23777344 12.54378906 26.26367188 13.56445312 C26.32306681 19.52374502 25.91366234 23.75822974 23 29 C19.78544488 32.01364543 17.0353012 32.92331102 12.625 33.25 C7.83152059 32.91941521 5.39228331 31.59118092 2.25 28 C0.06918998 24.51070397 -0.11984079 21.691183 -0.09765625 17.67578125 C-0.09443359 16.64775391 -0.09121094 15.61972656 -0.08789062 14.56054688 C-0.07951172 13.48869141 -0.07113281 12.41683594 -0.0625 11.3125 C-0.05798828 10.22904297 -0.05347656 9.14558594 -0.04882812 8.02929688 C-0.03703743 5.35280915 -0.02058063 2.67643223 0 0 Z " fill="#046EA2" transform="translate(223,914)"/>
<path d="M0 0 C1.98 0 3.96 0 6 0 C6.01981934 0.64549805 6.03963867 1.29099609 6.06005859 1.95605469 C6.15546328 4.88777221 6.26507971 7.81879232 6.375 10.75 C6.4059375 11.76578125 6.436875 12.7815625 6.46875 13.828125 C6.50742187 14.8078125 6.54609375 15.7875 6.5859375 16.796875 C6.6173584 17.69760742 6.6487793 18.59833984 6.68115234 19.52636719 C7.01137256 22.08822875 7.70951673 23.78127437 9 26 C12.41642759 26.25015873 12.41642759 26.25015873 16 26 C18.19164944 22.71252584 18.28679386 21.51505175 18.4140625 17.67578125 C18.45273437 16.64775391 18.49140625 15.61972656 18.53125 14.56054688 C18.57765625 12.95276367 18.57765625 12.95276367 18.625 11.3125 C18.66367187 10.22904297 18.70234375 9.14558594 18.7421875 8.02929688 C18.83650509 5.35303533 18.92210005 2.67678157 19 0 C20.98 0 22.96 0 25 0 C25.08756305 3.70818297 25.14058015 7.41609763 25.1875 11.125 C25.21263672 12.17171875 25.23777344 13.2184375 25.26367188 14.296875 C25.32646053 20.91061326 24.97504247 25.68168339 20.375 30.8125 C15.52764848 33.23617576 10.787591 33.52965659 5.625 32 C2.305314 29.47071543 1.03941757 26.94995914 0 23 C-0.34723094 19.01113098 -0.28433305 15.06244978 -0.1875 11.0625 C-0.17396484 9.99708984 -0.16042969 8.93167969 -0.14648438 7.83398438 C-0.11134724 5.22212412 -0.06215184 2.61133366 0 0 Z " fill="#046FA3" transform="translate(457,914)"/>
<path d="M0 0 C7.26 0 14.52 0 22 0 C13.57142857 17 13.57142857 17 9 25 C12.96 25.33 16.92 25.66 21 26 C21 27.98 21 29.96 21 32 C13.41 32 5.82 32 -2 32 C-0.61162949 27.83488847 0.5284041 24.75146242 2.6015625 21.0390625 C3.33632813 19.71455078 3.33632813 19.71455078 4.0859375 18.36328125 C4.84777344 17.00783203 4.84777344 17.00783203 5.625 15.625 C6.3984375 14.23474609 6.3984375 14.23474609 7.1875 12.81640625 C8.45380639 10.54174477 9.72629105 8.27052466 11 6 C7.37 6 3.74 6 0 6 C0 4.02 0 2.04 0 0 Z " fill="#036EA2" transform="translate(833,914)"/>
<path d="M0 0 C0.7734375 0.9590625 0.7734375 0.9590625 1.5625 1.9375 C0 3.5 0 3.5 -2.4375 4.9375 C-6.1875 4.625 -6.1875 4.625 -9.4375 3.9375 C-9.4375 5.2575 -9.4375 6.5775 -9.4375 7.9375 C-8.73882812 8.26363281 -8.04015625 8.58976563 -7.3203125 8.92578125 C-6.41023437 9.36277344 -5.50015625 9.79976562 -4.5625 10.25 C-3.65757812 10.67925781 -2.75265625 11.10851562 -1.8203125 11.55078125 C0.5625 12.9375 0.5625 12.9375 2.5625 15.9375 C3.00706411 20.53132919 3.21838803 22.82006113 0.875 26.8125 C-2.10872108 29.55429775 -4.23561503 30.90169699 -8.359375 30.96875 C-13.10782474 30.6117237 -16.07381258 29.51141788 -19.4375 25.9375 C-19.4375 24.9475 -19.4375 23.9575 -19.4375 22.9375 C-17.7875 22.2775 -16.1375 21.6175 -14.4375 20.9375 C-14.045625 21.4325 -13.65375 21.9275 -13.25 22.4375 C-11.48927629 24.18052195 -11.48927629 24.18052195 -8.8125 24.1875 C-6.48453565 24.19426839 -6.48453565 24.19426839 -5.4375 22.9375 C-5.39686168 21.27132885 -5.394779 19.60361905 -5.4375 17.9375 C-6.13617188 17.59976563 -6.83484375 17.26203125 -7.5546875 16.9140625 C-8.46476563 16.46804688 -9.37484375 16.02203125 -10.3125 15.5625 C-11.21742188 15.12164063 -12.12234375 14.68078125 -13.0546875 14.2265625 C-15.4375 12.9375 -15.4375 12.9375 -17.4375 10.9375 C-17.89358457 6.30064016 -18.08490778 4.0242202 -15.6875 0 C-11.03613042 -4.26375545 -4.89346903 -4.14062764 0 0 Z " fill="#0770A3" transform="translate(216.4375,916.0625)"/>
<path d="M0 0 C2.31 0 4.62 0 7 0 C9.31 6.27 11.62 12.54 14 19 C16.64 12.73 19.28 6.46 22 0 C24.31 0 26.62 0 29 0 C26.66737643 7.36985054 23.8202139 14.44438679 20.8125 21.5625 C20.34908203 22.66658203 19.88566406 23.77066406 19.40820312 24.90820312 C18.27506147 27.60671574 17.1389372 30.30392958 16 33 C14.68 33 13.36 33 12 33 C10.28439209 28.78512551 8.57559157 24.56758029 6.87304688 20.34741211 C6.29288127 18.91208628 5.71086106 17.47750865 5.12695312 16.04370117 C4.28807948 13.98289679 3.45590761 11.91949566 2.625 9.85546875 C2.23127197 8.89437447 2.23127197 8.89437447 1.82958984 7.91386414 C0.70398703 5.10091871 0 3.06281705 0 0 Z " fill="#0670A2" transform="translate(573,914)"/>
<path d="M0 0 C0.66 0 1.32 0 2 0 C2.54269531 1.05960938 3.08539063 2.11921875 3.64453125 3.2109375 C4.36678595 4.59916732 5.08946435 5.98717676 5.8125 7.375 C6.16892578 8.07367188 6.52535156 8.77234375 6.89257812 9.4921875 C7.41948242 10.49765625 7.41948242 10.49765625 7.95703125 11.5234375 C8.27647705 12.14138184 8.59592285 12.75932617 8.92504883 13.39599609 C10.06677549 15.32068083 10.06677549 15.32068083 13 17 C13 18.32 13 19.64 13 21 C13.33 21.99 13.66 22.98 14 24 C14.66 24.33 15.32 24.66 16 25 C17.25726254 27.31553388 18.42551649 29.62605396 19.5625 32 C22.4819808 37.97418536 25.48974293 43.88609262 28.625 49.75 C31.21117611 54.58752256 33.72762247 59.43997284 36.125 64.375 C39.78767419 71.75093781 43.93358455 78.79053788 49.375 85 C52 88 52 88 53 91 C54.65438613 91.69658363 56.32254318 92.36096883 58 93 C58.40863281 93.44214844 58.81726563 93.88429688 59.23828125 94.33984375 C61.75751297 96.7138426 64.73034215 98.06176346 67.8125 99.5625 C68.71838867 100.01786133 68.71838867 100.01786133 69.64257812 100.48242188 C75.5096424 103.38121897 80.40968191 105.31382467 87 105 C87 105.66 87 106.32 87 107 C118.02 107 149.04 107 181 107 C181 107.33 181 107.66 181 108 C170.25336232 108.73011918 159.51789214 109.26712754 148.75 109.5625 C148.01430786 109.58268188 147.27861572 109.60286377 146.52062988 109.62365723 C135.37071993 109.92085316 124.21829748 110.15305489 113.0645752 110.23117065 C111.54914324 110.24349887 110.03374172 110.26082361 108.51843262 110.28372192 C95.39925125 110.47050262 82.61799716 109.36812594 70.5625 103.6875 C69.89420166 103.38336182 69.22590332 103.07922363 68.53735352 102.76586914 C63.47882414 100.39203758 59.18919424 97.66554496 55 94 C54.4121875 93.55269531 53.824375 93.10539062 53.21875 92.64453125 C44.85954851 86.1001564 39.89400517 76.41145019 35 67.1875 C34.45093994 66.16414551 33.90187988 65.14079102 33.33618164 64.08642578 C28.30847811 54.67492627 23.42483154 45.18890397 18.54833984 35.69848633 C14.0342182 26.92594349 9.37775192 18.23834297 4.59155273 9.61083984 C4.13079346 8.77762207 3.67003418 7.9444043 3.1953125 7.0859375 C2.79328613 6.3645459 2.39125977 5.6431543 1.97705078 4.89990234 C1 3 1 3 0 0 Z " fill="#1074AA" transform="translate(467,153)"/>
<path d="M0 0 C3 1.5 3 1.5 5 3 C4.34 4.32 3.68 5.64 3 7 C0.36 6.67 -2.28 6.34 -5 6 C-5.33 7.32 -5.66 8.64 -6 10 C-4.82630859 10.61488281 -4.82630859 10.61488281 -3.62890625 11.2421875 C-2.11103516 12.05042969 -2.11103516 12.05042969 -0.5625 12.875 C0.44683594 13.40867187 1.45617187 13.94234375 2.49609375 14.4921875 C5 16 5 16 6 18 C6.55512815 22.63213493 6.6364242 25.98172127 4.125 30 C0.57073827 33.34518751 -2.02888106 33.2794186 -6.73828125 33.21875 C-9.837623 32.91898638 -11.66378719 32.04418621 -14 30 C-14.8125 27.8125 -14.8125 27.8125 -15 26 C-13.35 25.34 -11.7 24.68 -10 24 C-9.443125 24.7734375 -9.443125 24.7734375 -8.875 25.5625 C-6.96826848 27.36319983 -6.96826848 27.36319983 -3.8125 26.6875 C-2.884375 26.460625 -1.95625 26.23375 -1 26 C-1 24.35 -1 22.7 -1 21 C-1.68707031 20.68546875 -2.37414062 20.3709375 -3.08203125 20.046875 C-3.98308594 19.61890625 -4.88414062 19.1909375 -5.8125 18.75 C-6.70582031 18.33234375 -7.59914063 17.9146875 -8.51953125 17.484375 C-11.17332256 15.89627941 -12.48266542 14.68180066 -14 12 C-14 7.31100986 -13.92192658 5.11748676 -10.9375 1.5 C-7.14101634 -0.43862995 -4.18409627 -0.73390398 0 0 Z " fill="#0771A3" transform="translate(678,913)"/>
<path d="M0 0 C0.7734375 0.495 0.7734375 0.495 1.5625 1 C1.5625 3.31 1.5625 5.62 1.5625 8 C0.86125 7.67 0.16 7.34 -0.5625 7 C-3.86647847 5.8507901 -5.96653112 5.49381704 -9.4375 6 C-12.51838544 7.7460079 -12.51838544 7.7460079 -14.4375 11 C-15.29252087 15.60224279 -15.34247142 19.51584688 -12.875 23.5625 C-9.64522876 25.46723688 -7.17687173 25.86879397 -3.4375 26 C-0.58847933 25.18028284 -0.58847933 25.18028284 1.5625 24 C1.5625 26.31 1.5625 28.62 1.5625 31 C-2.1688455 33.48756366 -6.11175177 33.65492637 -10.4375 33 C-15.25437938 31.19975215 -18.59499141 28.26376289 -21.4375 24 C-23.05538547 19.14634359 -23.37644722 13.84366871 -21.75390625 8.9296875 C-17.59558938 0.9581423 -8.63388559 -3.54210691 0 0 Z " fill="#0970A3" transform="translate(508.4375,914)"/>
<path d="M0 0 C0 2.31 0 4.62 0 7 C-0.680625 6.649375 -1.36125 6.29875 -2.0625 5.9375 C-5.79202228 4.74722693 -8.21656644 5.0891734 -12 6 C-14.05938216 7.57885966 -14.84571211 8.69142423 -16 11 C-16.36846649 15.49529114 -16.56340691 17.94079501 -14.4375 21.9375 C-11.24361231 24.64002035 -9.15153123 24.92716612 -5 25 C-2.15097933 24.18028284 -2.15097933 24.18028284 0 23 C0 25.31 0 27.62 0 30 C-4.72232411 32.58966161 -8.91748711 32.21226014 -14 31 C-18.85800712 28.70848721 -21.17817222 25.94411442 -23.30859375 21.1484375 C-24.81310849 16.47339171 -24.52982028 12.55829493 -22.9375 7.875 C-20.2021193 3.81604799 -16.75939093 -0.0290016 -12.03515625 -1.69140625 C-8.04079707 -2.29707684 -3.61603933 -1.80801966 0 0 Z " fill="#0670A3" transform="translate(122,915)"/>
<path d="M0 0 C5.61 0 11.22 0 17 0 C17 1.65 17 3.3 17 5 C13.7 5 10.4 5 7 5 C7 7.31 7 9.62 7 12 C10.3 12 13.6 12 17 12 C17 13.65 17 15.3 17 17 C13.37 17 9.74 17 6 17 C6 20.3 6 23.6 6 27 C9.63 27 13.26 27 17 27 C17 28.65 17 30.3 17 32 C11.39 32 5.78 32 0 32 C0 21.44 0 10.88 0 0 Z " fill="#016EA1" transform="translate(642,914)"/>
<path d="M0 0 C0.495 0.33 0.99 0.66 1.5 1 C1.5 3.31 1.5 5.62 1.5 8 C0.984375 7.67 0.46875 7.34 -0.0625 7 C-3.46121795 5.60565417 -5.85594448 5.55248441 -9.5 6 C-12.57141749 8.02582856 -14.18692009 9.4812878 -14.9453125 13.16015625 C-15.14104014 17.06818473 -14.76077926 19.49930382 -12.9375 23 C-9.73652701 25.62643937 -7.61140988 25.92787 -3.5 26 C-0.65097933 25.18028284 -0.65097933 25.18028284 1.5 24 C1.5 26.31 1.5 28.62 1.5 31 C-3.03478225 33.40910307 -6.6541909 33.1843118 -11.5 32 C-16.34680732 29.85838746 -20.18554615 26.03335504 -22.3125 21.125 C-22.4053125 20.073125 -22.4053125 20.073125 -22.5 19 C-22.62375 17.7625 -22.7475 16.525 -22.875 15.25 C-22.79064695 10.22630706 -20.76595921 6.72781203 -17.5 3 C-12.3748891 -1.42849389 -6.31992218 -2.52796887 0 0 Z " fill="#0671A3" transform="translate(755.5,914)"/>
<path d="M0 0 C5.61 0 11.22 0 17 0 C17 1.65 17 3.3 17 5 C13.37 5 9.74 5 6 5 C6 7.31 6 9.62 6 12 C9.3 12 12.6 12 16 12 C16 13.65 16 15.3 16 17 C12.7 17 9.4 17 6 17 C6 20.3 6 23.6 6 27 C9.63 27 13.26 27 17 27 C17 28.65 17 30.3 17 32 C11.39 32 5.78 32 0 32 C0 21.44 0 10.88 0 0 Z " fill="#006B9F" transform="translate(405,914)"/>
<path d="M0 0 C5.61 0 11.22 0 17 0 C17 1.65 17 3.3 17 5 C13.37 5 9.74 5 6 5 C6 7.31 6 9.62 6 12 C9.3 12 12.6 12 16 12 C16 13.65 16 15.3 16 17 C12.7 17 9.4 17 6 17 C6 20.3 6 23.6 6 27 C9.63 27 13.26 27 17 27 C17 28.65 17 30.3 17 32 C11.39 32 5.78 32 0 32 C0 21.44 0 10.88 0 0 Z " fill="#016C9F" transform="translate(713,914)"/>
<path d="M0 0 C2.8100346 1.79363911 4.50940468 3.01880935 6 6 C6.4973766 10.973766 6.54511419 13.06308498 4 17.4375 C0.81166967 20.16086549 -0.90020198 21.06402739 -5 21.3125 C-8.7000711 20.73436389 -10.45940763 18.6645237 -13 16 C-14.60086627 12.79826746 -14.49917089 9.47422941 -14 6 C-10.32759145 0.24655994 -6.71744997 -0.96515086 0 0 Z " fill="#F7FBFC" transform="translate(310,920)"/>
<path d="M0 0 C2.25 1.6875 2.25 1.6875 4.25 4.6875 C5.01579737 11.36087705 5.01579737 11.36087705 3.19921875 14.5078125 C0.52077137 17.77883674 -1.31001362 19.49113822 -5.5 20.0625 C-10.0253858 19.5403401 -11.5171103 17.84520622 -14.75 14.6875 C-16.28214888 11.62320224 -15.97938548 9.0709358 -15.75 5.6875 C-14.48001681 2.83003783 -13.4661997 1.20612737 -10.9375 -0.625 C-6.8674824 -1.90414839 -3.86135114 -1.84291759 0 0 Z " fill="#F9FCFD" transform="translate(147.75,921.3125)"/>
<path d="M0 0 C6.93 0 13.86 0 21 0 C21 1.65 21 3.3 21 5 C18.69 5 16.38 5 14 5 C14 13.91 14 22.82 14 32 C11.69 32 9.38 32 7 32 C7 23.09 7 14.18 7 5 C4.69 5 2.38 5 0 5 C0 3.35 0 1.7 0 0 Z " fill="#006BA0" transform="translate(268,914)"/>
<path d="M0 0 C6.93 0 13.86 0 21 0 C21 1.65 21 3.3 21 5 C18.69 5 16.38 5 14 5 C14 13.91 14 22.82 14 32 C11.69 32 9.38 32 7 32 C7 23.09 7 14.18 7 5 C4.69 5 2.38 5 0 5 C0 3.35 0 1.7 0 0 Z " fill="#107EAD" transform="translate(540,914)"/>
<path d="M0 0 C6.1683564 0 7.41855919 0.37746541 12 4 C13.74221711 7.48443422 13.58675154 11.19887045 13 15 C11.29748281 18.07469523 9.18773492 20.40613254 6 22 C4.02 22 2.04 22 0 22 C0 14.74 0 7.48 0 0 Z " fill="#F8FCFD" transform="translate(433,919)"/>
<path d="M0 0 C1.98 0 3.96 0 6 0 C6 8.91 6 17.82 6 27 C9.3 27 12.6 27 16 27 C16 28.65 16 30.3 16 32 C10.72 32 5.44 32 0 32 C0 21.44 0 10.88 0 0 Z " fill="#00699E" transform="translate(255,914)"/>
<path d="M0 0 C1.98 0 3.96 0 6 0 C6 8.91 6 17.82 6 27 C8.97 27 11.94 27 15 27 C15 28.65 15 30.3 15 32 C10.05 32 5.1 32 0 32 C0 21.44 0 10.88 0 0 Z " fill="#006B9F" transform="translate(803,914)"/>
<path d="M0 0 C7.14285714 0 7.14285714 0 11 3 C13.56632517 6.42176689 13.36435051 9.84640421 13 14 C11.34860695 17.5386994 10.28394771 18.81070153 7 21 C4.69 21 2.38 21 0 21 C0 14.07 0 7.14 0 0 Z " fill="#F9FDFD" transform="translate(894,919)"/>
<path d="M0 0 C2.31 0 4.62 0 7 0 C7 10.56 7 21.12 7 32 C4.69 32 2.38 32 0 32 C0 21.44 0 10.88 0 0 Z " fill="#0172A5" transform="translate(821,914)"/>
<path d="M0 0 C2.31 0 4.62 0 7 0 C7 10.56 7 21.12 7 32 C4.69 32 2.38 32 0 32 C0 21.44 0 10.88 0 0 Z " fill="#0775A7" transform="translate(353,914)"/>
<path d="M0 0 C0.99 0.66 1.98 1.32 3 2 C3 2.99 3 3.98 3 5 C2.34 5 1.68 5 1 5 C1.33 6.65 1.66 8.3 2 10 C2.66 8.02 3.32 6.04 4 4 C4.66 4 5.32 4 6 4 C9.62870159 14.37357631 9.62870159 14.37357631 8 20 C5.03 20.33 2.06 20.66 -1 21 C-1.99 23.31 -2.98 25.62 -4 28 C-5.98 28 -7.96 28 -10 28 C-7.46277869 18.38272302 -3.66846291 9.22643548 0 0 Z " fill="#0772A4" transform="translate(865,918)"/>
<path d="M0 0 C2.52113596 3.78170394 3.9831571 7.71609499 5.625 11.9375 C6.11226562 13.15469727 6.11226562 13.15469727 6.609375 14.39648438 C6.91617188 15.18216797 7.22296875 15.96785156 7.5390625 16.77734375 C7.81959473 17.49140381 8.10012695 18.20546387 8.38916016 18.94116211 C9 21 9 21 9 25 C7.02 25 5.04 25 3 25 C2.5875 23.88625 2.175 22.7725 1.75 21.625 C0.64453484 19.00679305 0.25119213 18.16506911 -2.1875 16.5625 C-2.785625 16.376875 -3.38375 16.19125 -4 16 C-3.67 15.67 -3.34 15.34 -3 15 C-5.31 14.67 -7.62 14.34 -10 14 C-9.54803755 12.39402675 -9.08817673 10.79027492 -8.625 9.1875 C-8.36976563 8.29417969 -8.11453125 7.40085937 -7.8515625 6.48046875 C-7 4 -7 4 -5 1 C-4.01 1.99 -3.02 2.98 -2 4 C-1.34 2.68 -0.68 1.36 0 0 Z " fill="#0771A3" transform="translate(791,921)"/>
<path d="M0 0 C0.99 0.33 1.98 0.66 3 1 C4.04718798 3.31254012 5.04346365 5.6485148 6 8 C6.99627822 9.33611657 7.99698171 10.66893573 9 12 C10.38456615 14.300299 11.73711784 16.60394217 13.0625 18.9375 C13.41376953 19.54529297 13.76503906 20.15308594 14.12695312 20.77929688 C15.64454775 23.43867347 17.00046618 26.00126779 18.05859375 28.87890625 C18.36925781 29.57886719 18.67992187 30.27882812 19 31 C19.99 31.33 20.98 31.66 22 32 C23.03515625 33.72265625 23.03515625 33.72265625 24.0625 36.0625 C26.37153692 40.93946587 29.05500928 45.44962615 31.9375 50 C32.3718335 50.68731201 32.80616699 51.37462402 33.25366211 52.08276367 C34.10669992 53.43095838 34.96043984 54.77870913 35.81494141 56.12597656 C37.44006883 58.69591437 39.04127887 61.27935253 40.625 63.875 C41.09164062 64.63554687 41.55828125 65.39609375 42.0390625 66.1796875 C43 68 43 68 43 70 C43.66 70 44.32 70 45 70 C45.79275148 71.4160599 46.58415312 72.83287553 47.375 74.25 C47.81585938 75.03890625 48.25671875 75.8278125 48.7109375 76.640625 C49.85747823 78.73914197 50.94649552 80.8536077 52 83 C53.98 82.505 53.98 82.505 56 82 C55.79920119 84.12786799 55.56342937 86.25245982 55.3125 88.375 C55.18488281 89.55835938 55.05726563 90.74171875 54.92578125 91.9609375 C54 95 54 95 51.41796875 96.4140625 C50.22107422 96.70410156 50.22107422 96.70410156 49 97 C49 97.66 49 98.32 49 99 C48.01 98.505 48.01 98.505 47 98 C47.37253906 97.46890625 47.74507813 96.9378125 48.12890625 96.390625 C48.60199219 95.68421875 49.07507813 94.9778125 49.5625 94.25 C50.03816406 93.55390625 50.51382813 92.8578125 51.00390625 92.140625 C52.14840414 90.1175565 52.14840414 90.1175565 51.90625 88.1796875 C50.5442831 84.90392229 48.76060523 81.90833832 46.9375 78.875 C46.50195801 78.14273193 46.06641602 77.41046387 45.61767578 76.65600586 C39.56044712 66.52087916 33.33421743 56.48725492 27.12744141 46.44335938 C21.06876212 36.63887786 15.02656012 26.82425766 9 17 C8.48163574 16.15614746 7.96327148 15.31229492 7.42919922 14.44287109 C6.11433349 12.29831837 4.80563095 10.15018337 3.5 8 C3.13205322 7.40098877 2.76410645 6.80197754 2.38500977 6.18481445 C0 2.23161169 0 2.23161169 0 0 Z " fill="#167B2F" transform="translate(325,193)"/>
<path d="M0 0 C2.31 0 4.62 0 7 0 C7.08782542 3.52067351 7.14066643 7.04106144 7.1875 10.5625 C7.21263672 11.55314453 7.23777344 12.54378906 7.26367188 13.56445312 C7.3226655 19.48348005 7.00901517 23.83357773 4 29 C1.3125 29.9375 1.3125 29.9375 -1 30 C-1.38218767 28.34385343 -1.71395102 26.67542976 -2 25 C-1.67 24.67 -1.34 24.34 -1 24 C-0.84235595 22.22130274 -0.74899323 20.43681524 -0.68359375 18.65234375 C-0.64169922 17.57275391 -0.59980469 16.49316406 -0.55664062 15.38085938 C-0.51732422 14.24455078 -0.47800781 13.10824219 -0.4375 11.9375 C-0.39431641 10.79732422 -0.35113281 9.65714844 -0.30664062 8.48242188 C-0.20017161 5.65507805 -0.09815793 2.82764262 0 0 Z " fill="#0E7BAB" transform="translate(242,914)"/>
<path d="M0 0 C2.875 -0.125 2.875 -0.125 6 0 C6.66 0.66 7.32 1.32 8 2 C7.625 5.625 7.625 5.625 7 9 C8.65 9.33 10.3 9.66 12 10 C12 10.66 12 11.32 12 12 C10.68 12.33 9.36 12.66 8 13 C8.49371094 13.75925781 8.98742187 14.51851562 9.49609375 15.30078125 C10.13675781 16.29464844 10.77742188 17.28851562 11.4375 18.3125 C12.07558594 19.29863281 12.71367187 20.28476562 13.37109375 21.30078125 C15 24 15 24 16 27 C13.36 27 10.72 27 8 27 C6.96692229 25.23628182 5.94887951 23.46374967 4.9375 21.6875 C4.36902344 20.70136719 3.80054688 19.71523438 3.21484375 18.69921875 C2 16 2 16 3 13 C3.66 13 4.32 13 5 13 C5 12.01 5 11.02 5 10 C3.35 10 1.7 10 0 10 C0 6.7 0 3.4 0 0 Z " fill="#0770A3" transform="translate(333,919)"/>
<path d="M0 0 C1.98 0 3.96 0 6 0 C6 10.56 6 21.12 6 32 C4.02 32 2.04 32 0 32 C0 21.44 0 10.88 0 0 Z " fill="#03639B" transform="translate(564,914)"/>
<path d="M0 0 C1.98 0 3.96 0 6 0 C6 10.56 6 21.12 6 32 C4.02 32 2.04 32 0 32 C0 21.44 0 10.88 0 0 Z " fill="#00689D" transform="translate(762,914)"/>
<path d="M0 0 C5.56792849 1.96515123 8.7418436 3.82528101 12 9 C13.63869482 14.46231607 13.20901006 19.12940717 10.96875 24.3359375 C9.69021334 26.53213354 8.21371943 27.77863756 6 29 C4.68 27.68 3.36 26.36 2 25 C2.495 24.360625 2.99 23.72125 3.5 23.0625 C5.5018823 18.97532365 5.76466332 15.47874231 5 11 C3.37419918 8.54047777 3.37419918 8.54047777 1 7 C0.2575 6.4225 -0.485 5.845 -1.25 5.25 C-1.8275 4.8375 -2.405 4.425 -3 4 C-2.01 4 -1.02 4 0 4 C0 2.68 0 1.36 0 0 Z " fill="#0871A4" transform="translate(440,914)"/>
<path d="M0 0 C-0.51949219 0.25394531 -1.03898437 0.50789063 -1.57421875 0.76953125 C-3.72435595 1.83068954 -5.86257092 2.91350648 -8 4 C-8.99 4.495 -9.98 4.99 -11 5.5 C-11.66 5.995 -12.32 6.49 -13 7 C-13 10.79557881 -12.49821059 12.62902617 -11 16 C-10.34 16 -9.68 16 -9 16 C-8.59394531 16.99515625 -8.18789063 17.9903125 -7.76953125 19.015625 C-6.0193421 23.09632378 -3.8999043 26.90523303 -1.6875 30.75 C-0.88619734 32.15855767 -0.08541792 33.56741314 0.71484375 34.9765625 C1.10397949 35.66008789 1.49311523 36.34361328 1.89404297 37.04785156 C12 54.88609272 12 54.88609272 12 58 C12.66 58.33 13.32 58.66 14 59 C15.05725253 60.97033426 16.04435012 62.97843296 17 65 C18.07407061 67.08997854 19.15057907 69.17864718 20.23046875 71.265625 C21 73 21 73 21 75 C21.99 75.495 21.99 75.495 23 76 C23 76.99 23 77.98 23 79 C23.99 79.33 24.98 79.66 26 80 C26.33 80.99 26.66 81.98 27 83 C25.24194336 82.92041016 25.24194336 82.92041016 23 82 C21.51898549 79.76335031 20.31845802 77.65940067 19.12890625 75.2734375 C18.77021957 74.58234894 18.4115329 73.89126038 18.04197693 73.17922974 C17.27155413 71.69176201 16.50719866 70.20113929 15.74829102 68.70776367 C13.75614357 64.78868424 11.72036541 60.8922962 9.69140625 56.9921875 C9.2890274 56.21554749 8.88664856 55.43890747 8.47207642 54.63873291 C5.11783117 48.17834431 1.61429667 41.81922172 -2 35.5 C-2.51449707 34.59789795 -3.02899414 33.6957959 -3.55908203 32.76635742 C-4.55181826 31.02802926 -5.54559537 29.29029502 -6.54052734 27.55322266 C-8.98532446 23.27625907 -11.40450517 18.98526983 -13.8125 14.6875 C-14.23982422 13.93339844 -14.66714844 13.17929687 -15.10742188 12.40234375 C-18 7.22973346 -18 7.22973346 -18 5 C-15.56686628 3.96748938 -13.12943108 2.94880479 -10.6875 1.9375 C-9.65206055 1.49567383 -9.65206055 1.49567383 -8.59570312 1.04492188 C-3.33984375 -1.11328125 -3.33984375 -1.11328125 0 0 Z " fill="#0B6DA5" transform="translate(421,30)"/>
<path d="M0 0 C2.17854707 3.2678206 3.49760034 6.38058265 5 10 C5 8.35 5 6.7 5 5 C6.32 5 7.64 5 9 5 C10.00605593 7.60197202 11.00502525 10.20629362 12 12.8125 C12.42925781 13.91948242 12.42925781 13.91948242 12.8671875 15.04882812 C13.13789063 15.76103516 13.40859375 16.47324219 13.6875 17.20703125 C13.93886719 17.8616333 14.19023437 18.51623535 14.44921875 19.19067383 C15 21 15 21 15 24 C13.02 24 11.04 24 9 24 C7.23537317 20.91190305 7 19.76687864 7 16 C4.03 16 1.06 16 -2 16 C-2 15.34 -2 14.68 -2 14 C-2.66 13.67 -3.32 13.34 -4 13 C-3.52343588 11.20763933 -3.04366502 9.41613103 -2.5625 7.625 C-2.29566406 6.62726562 -2.02882813 5.62953125 -1.75390625 4.6015625 C-1 2 -1 2 0 0 Z " fill="#0673A5" transform="translate(377,922)"/>
<path d="M0 0 C2.31 0 4.62 0 7 0 C7.5745952 3.73486879 8 7.21293268 8 11 C7.01 11 6.02 11 5 11 C5.66 13.97 6.32 16.94 7 20 C4.36 20 1.72 20 -1 20 C-1.33 19.01 -1.66 18.02 -2 17 C-1.67 16.34 -1.34 15.68 -1 15 C-2.65 15.66 -4.3 16.32 -6 17 C-4.33846988 11.14340094 -2.52958084 5.5409866 0 0 Z " fill="#076FA3" transform="translate(925,914)"/>
<path d="M0 0 C3.30439099 4.40585465 3.86678482 6.76977608 5 12 C3.02 12.33 1.04 12.66 -1 13 C0.65 13.33 2.3 13.66 4 14 C2 16 2 16 -1.4375 16.75 C-5.24668142 17.6681036 -5.24668142 17.6681036 -6.9375 21.125 C-7.288125 22.07375 -7.63875 23.0225 -8 24 C-9.98 24 -11.96 24 -14 24 C-13.31583566 19.82423832 -11.98634991 16.11919593 -10.4375 12.1875 C-9.75494141 10.44533203 -9.75494141 10.44533203 -9.05859375 8.66796875 C-8.70925781 7.78753906 -8.35992188 6.90710938 -8 6 C-6.68 6.33 -5.36 6.66 -4 7 C-4 8.32 -4 9.64 -4 11 C-2.68 7.37 -1.36 3.74 0 0 Z " fill="#0772A4" transform="translate(614,922)"/>
<path d="M0 0 C2.17854707 3.2678206 3.49760034 6.38058265 5 10 C5.33 9.01 5.66 8.02 6 7 C9 8 9 8 10.0625 9.875 C10.371875 10.57625 10.68125 11.2775 11 12 C11.99 13.485 11.99 13.485 13 15 C13.5827119 16.54766142 14.12264187 18.11192222 14.625 19.6875 C15.01558594 20.89986328 15.01558594 20.89986328 15.4140625 22.13671875 C15.60742188 22.75160156 15.80078125 23.36648438 16 24 C13.69 24 11.38 24 9 24 C7.74335022 21.09399739 7 19.20395416 7 16 C4.36 16 1.72 16 -1 16 C-0.67 15.34 -0.34 14.68 0 14 C-1.32 13.67 -2.64 13.34 -4 13 C-3.52343588 11.20763933 -3.04366502 9.41613103 -2.5625 7.625 C-2.29566406 6.62726562 -2.02882813 5.62953125 -1.75390625 4.6015625 C-1 2 -1 2 0 0 Z " fill="#0572A4" transform="translate(526,922)"/>
<path d="M0 0 C24.07020695 -0.86422286 46.55009646 4.70569208 64.69140625 21.51879883 C71.45670157 28.12595312 77.29806977 36.29742959 81 45 C80.67 45.99 80.34 46.98 80 48 C79.67128906 47.34515625 79.34257813 46.6903125 79.00390625 46.015625 C72.38769817 33.32111194 64.47614408 22.31098245 52 15 C51.20980469 14.505 50.41960937 14.01 49.60546875 13.5 C42.98542634 9.39322087 36.75130959 6.32339432 29 5 C28.39027344 4.84877686 27.78054688 4.69755371 27.15234375 4.54174805 C21.23306562 3.08408552 15.51796515 2.5891323 9.4375 2.375 C8.06754883 2.31699219 8.06754883 2.31699219 6.66992188 2.2578125 C4.44680076 2.16469748 2.22366387 2.07887834 0 2 C0 1.34 0 0.68 0 0 Z " fill="#0669A4" transform="translate(458,22)"/>
<path d="M0 0 C5.61 0 11.22 0 17 0 C17 1.65 17 3.3 17 5 C13.7 5 10.4 5 7 5 C7 7.31 7 9.62 7 12 C6.67 12 6.34 12 6 12 C5.67 10.35 5.34 8.7 5 7 C2.43863779 9.56136221 2.70333143 10.66561331 2.5859375 14.2265625 C2.54726563 15.2578125 2.50859375 16.2890625 2.46875 17.3515625 C2.4378125 18.43179688 2.406875 19.51203125 2.375 20.625 C2.33632813 21.71296875 2.29765625 22.8009375 2.2578125 23.921875 C2.16333753 26.61441165 2.07777569 29.30693757 2 32 C1.34 32 0.68 32 0 32 C0 21.44 0 10.88 0 0 Z " fill="#1971A3" transform="translate(642,914)"/>
<path d="M0 0 C2.72554982 3.35537968 4.64794032 6.99987793 6.56933594 10.84814453 C6.91275528 11.52826599 7.25617462 12.20838745 7.61000061 12.90911865 C8.73903109 15.14824541 9.86205058 17.39031775 10.984375 19.6328125 C11.76707291 21.19178118 12.54989119 22.75068943 13.33282471 24.30953979 C14.96969044 27.57131282 16.60325371 30.83471592 18.23486328 34.09912109 C20.33073281 38.29106415 22.43758767 42.47738019 24.54726791 46.66238594 C26.16545967 49.87659664 27.77641848 53.09439087 29.38532257 56.31325912 C30.15946461 57.85917625 30.93621397 59.40379048 31.71556854 60.94708633 C32.80071902 63.09790739 33.8757237 65.25350322 34.94824219 67.41064453 C35.27440018 68.0517215 35.60055817 68.69279846 35.93659973 69.353302 C36.68579451 70.87345505 37.35188702 72.43407929 38 74 C37.67 74.66 37.34 75.32 37 76 C36.73896484 75.50298584 36.47792969 75.00597168 36.20898438 74.49389648 C34.97313682 72.14151152 33.73655067 69.78951544 32.5 67.4375 C32.04439697 66.56996094 31.58879395 65.70242187 31.11938477 64.80859375 C29.05571199 60.88397222 26.9886193 56.96228658 24.87109375 53.06640625 C20.74718442 45.46973117 16.95534118 37.7672911 13.2980957 29.93481445 C10.55761837 24.09438451 7.62945172 18.40932208 4.5078125 12.76171875 C0 4.50518135 0 4.50518135 0 0 Z " fill="#0D77B4" transform="translate(547,84)"/>
<path d="M0 0 C2.53903996 0.35021241 3.82093298 0.84011873 5.75 2.5625 C7.51752049 6.00916496 7.58021249 9.24349605 7 13 C5.5 16 5.5 16 4 18 C2.9790625 17.7834375 2.9790625 17.7834375 1.9375 17.5625 C-1.36273082 16.93054091 -4.67144426 16.45686059 -8 16 C-8 15.67 -8 15.34 -8 15 C-5.69 14.34 -3.38 13.68 -1 13 C-1 10.69 -1 8.38 -1 6 C-2.98 5.34 -4.96 4.68 -7 4 C-7 3.67 -7 3.34 -7 3 C-5.00045254 2.95745644 -2.99958364 2.95919217 -1 3 C-0.67 3.33 -0.34 3.66 0 4 C0 3.01 0 2.02 0 1 C0 0.67 0 0.34 0 0 Z " fill="#056EA1" transform="translate(702,915)"/>
<path d="M0 0 C6.93 0 13.86 0 21 0 C21 0.33 21 0.66 21 1 C14.4 1 7.8 1 1 1 C1 1.99 1 2.98 1 4 C2.7015625 3.9690625 2.7015625 3.9690625 4.4375 3.9375 C8 4 8 4 9 5 C9.08737645 6.85369611 9.10698153 8.71067541 9.09765625 10.56640625 C9.09443359 11.69111328 9.09121094 12.81582031 9.08789062 13.97460938 C9.07951172 15.15861328 9.07113281 16.34261719 9.0625 17.5625 C9.05798828 18.75037109 9.05347656 19.93824219 9.04882812 21.16210938 C9.03699675 24.10812226 9.02051287 27.05403681 9 30 C9.99 30 10.98 30 12 30 C12 21.75 12 13.5 12 5 C12.33 5 12.66 5 13 5 C13 13.91 13 22.82 13 32 C11.02 32 9.04 32 7 32 C7 23.09 7 14.18 7 5 C4.69 5 2.38 5 0 5 C0 3.35 0 1.7 0 0 Z " fill="#01629A" transform="translate(540,914)"/>
<path d="M0 0 C1 3 1 3 0.26245117 5.05859375 C-0.34119263 6.23615234 -0.34119263 6.23615234 -0.95703125 7.4375 C-1.4051416 8.3229248 -1.85325195 9.20834961 -2.31494141 10.12060547 C-3.05623291 11.54590576 -3.05623291 11.54590576 -3.8125 13 C-4.31442871 13.98242676 -4.81635742 14.96485352 -5.33349609 15.97705078 C-6.87788837 18.99058201 -8.43714629 21.99600861 -10 25 C-10.44939941 25.86979492 -10.89879883 26.73958984 -11.36181641 27.63574219 C-27.37744575 58.61839477 -27.37744575 58.61839477 -35 68 C-35 64.19385396 -33.83773404 62.92403469 -31.75 59.75 C-27.70626428 53.41540867 -24.16792464 46.84542736 -20.6875 40.1875 C-20.17219727 39.20942383 -19.65689453 38.23134766 -19.12597656 37.22363281 C-16.3655835 31.90738729 -13.96281352 26.66067379 -12 21 C-11.34 21 -10.68 21 -10 21 C-9.731875 20.31164062 -9.46375 19.62328125 -9.1875 18.9140625 C-7.87459367 15.69225948 -6.45330024 12.53592802 -5 9.375 C-4.484375 8.24835938 -3.96875 7.12171875 -3.4375 5.9609375 C-2 3 -2 3 0 0 Z " fill="#088152" transform="translate(567,431)"/>
<path d="M0 0 C-2.44239579 2.44239579 -4.25980135 2.78829465 -7.5625 3.75 C-15.82774615 6.41588875 -22.160703 10.56180075 -28 17 C-28.62777344 17.61230469 -29.25554688 18.22460938 -29.90234375 18.85546875 C-37.62328228 26.74894222 -40.70928253 36.37940081 -43 47 C-43.33 47 -43.66 47 -44 47 C-45.17193793 36.92133383 -39.76939547 27.11536531 -33.875 19.27734375 C-25.87881077 9.56530558 -13.61197969 -1.31728836 0 0 Z " fill="#0869A2" transform="translate(632,33)"/>
<path d="M0 0 C4.29 0 8.58 0 13 0 C13 0.33 13 0.66 13 1 C9.04 1 5.08 1 1 1 C1 10.57 1 20.14 1 30 C4.96 29.67 8.92 29.34 13 29 C10.69 28.67 8.38 28.34 6 28 C6 27.67 6 27.34 6 27 C9.3 26.34 12.6 25.68 16 25 C16.33 25.99 16.66 26.98 17 28 C17.66 28.33 18.32 28.66 19 29 C11.99763158 32.81947368 9.06907064 32 0 32 C0 21.44 0 10.88 0 0 Z " fill="#015F97" transform="translate(427,914)"/>
<path d="M0 0 C2.25 -0.3125 2.25 -0.3125 5 0 C9.81540084 5.08292311 10.26999143 8.50413347 10.234375 15.2890625 C9.95573028 18.51205305 9.06117366 20.50941516 7 23 C5.66667905 20.3333581 6.32897967 18.83319697 7 16 C6.01 16.33 5.02 16.66 4 17 C3.81824219 15.98679687 3.81824219 15.98679687 3.6328125 14.953125 C3.46523438 14.06109375 3.29765625 13.1690625 3.125 12.25 C2.96257813 11.36828125 2.80015625 10.4865625 2.6328125 9.578125 C2.03203736 7.13052256 1.22002883 5.19400143 0 3 C0.99 3.33 1.98 3.66 3 4 C3.6875 6.0625 3.6875 6.0625 4 8 C4.66 7.67 5.32 7.34 6 7 C5.88693303 5.04105639 5.88693303 5.04105639 5 3 C2.50965614 1.70339566 2.50965614 1.70339566 0 1 C0 0.67 0 0.34 0 0 Z " fill="#056AA0" transform="translate(903,917)"/>
<path d="M0 0 C0.99 0 1.98 0 3 0 C3 9.57 3 19.14 3 29 C2.01 29 1.02 29 0 29 C0 19.43 0 9.86 0 0 Z " fill="#0176A7" transform="translate(565,915)"/>
<path d="M0 0 C2.31 0 4.62 0 7 0 C7 0.33 7 0.66 7 1 C5.35 1 3.7 1 2 1 C2 10.57 2 20.14 2 30 C3.65 30 5.3 30 7 30 C7 30.66 7 31.32 7 32 C4.69 32 2.38 32 0 32 C0 21.44 0 10.88 0 0 Z " fill="#247BAA" transform="translate(821,914)"/>
<path d="M0 0 C3.96 0 7.92 0 12 0 C12 1.98 12 3.96 12 6 C4.41 6 -3.18 6 -11 6 C-10.34 4.35 -9.68 2.7 -9 1 C-8.67 1.66 -8.34 2.32 -8 3 C-2.06 3.33 3.88 3.66 10 4 C10 3.34 10 2.68 10 2 C6.7 2 3.4 2 0 2 C0 1.34 0 0.68 0 0 Z " fill="#026CA0" transform="translate(842,940)"/>
<path d="M0 0 C0.91007812 0.00902344 1.82015625 0.01804687 2.7578125 0.02734375 C3.45648438 0.03894531 4.15515625 0.05054688 4.875 0.0625 C4.215 1.3825 3.555 2.7025 2.875 4.0625 C4.2671875 4.68125 4.2671875 4.68125 5.6875 5.3125 C8.87429776 7.06211446 10.20538858 7.89902573 11.875 11.0625 C12.6875 14.6875 12.6875 14.6875 12.875 18.0625 C12.215 18.7225 11.555 19.3825 10.875 20.0625 C10.77703125 19.37542969 10.6790625 18.68835938 10.578125 17.98046875 C10.42859375 17.07941406 10.2790625 16.17835938 10.125 15.25 C9.98578125 14.35667969 9.8465625 13.46335937 9.703125 12.54296875 C8.67173768 9.45367182 7.73885466 8.57397885 4.875 7.0625 C2.28618198 6.70215477 2.28618198 6.70215477 -0.375 6.875 C-1.26703125 6.90207031 -2.1590625 6.92914062 -3.078125 6.95703125 C-4.09132813 7.00923828 -4.09132813 7.00923828 -5.125 7.0625 C-4.795 6.0725 -4.465 5.0825 -4.125 4.0625 C-5.115 3.7325 -6.105 3.4025 -7.125 3.0625 C-7.125 2.4025 -7.125 1.7425 -7.125 1.0625 C-4.60024538 -0.19987731 -2.81299534 -0.03606404 0 0 Z " fill="#03689E" transform="translate(305.125,913.9375)"/>
<path d="M0 0 C2.80464398 2.72215445 5.37308453 5.44571817 7.8125 8.5 C10.60680361 11.84878684 13.65689603 13.86979501 17.4609375 15.95703125 C17.96882812 16.30121094 18.47671875 16.64539063 19 17 C19 17.66 19 18.32 19 19 C25.96640656 21.13072305 32.96354423 23.11380178 40 25 C40 25.33 40 25.66 40 26 C29.52488122 27.21803707 19.00838888 21.30555251 11 15 C6.73792206 11.23351251 3.07697308 6.78992717 0 2 C0 1.34 0 0.68 0 0 Z " fill="#086CA6" transform="translate(595,113)"/>
<path d="M0 0 C2.875 -0.125 2.875 -0.125 6 0 C6.66 0.66 7.32 1.32 8 2 C7.625 5.625 7.625 5.625 7 9 C4.69 9.33 2.38 9.66 0 10 C0 6.7 0 3.4 0 0 Z " fill="#F3F9FB" transform="translate(333,919)"/>
<path d="M0 0 C1.65 0 3.3 0 5 0 C7 2 7 2 7.3125 5.5 C7.209375 6.655 7.10625 7.81 7 9 C4 11 4 11 0 11 C0 7.37 0 3.74 0 0 Z " fill="#F5FBFC" transform="translate(695,919)"/>
<path d="M0 0 C1.98 0 3.96 0 6 0 C6 7.26 6 14.52 6 22 C5.67 22 5.34 22 5 22 C4.67 15.4 4.34 8.8 4 2 C3.34 2 2.68 2 2 2 C2 8.6 2 15.2 2 22 C1.34 21.67 0.68 21.34 0 21 C0 14.07 0 7.14 0 0 Z " fill="#016099" transform="translate(457,914)"/>
<path d="M0 0 C4.2899656 3.90618586 6.82869137 9.11512247 9.75 14.0625 C10.36488281 15.08150391 10.97976563 16.10050781 11.61328125 17.15039062 C12.18949219 18.12298828 12.76570313 19.09558594 13.359375 20.09765625 C13.89014648 20.98976807 14.42091797 21.88187988 14.96777344 22.80102539 C15.47872559 23.88951782 15.47872559 23.88951782 16 25 C15.67 25.66 15.34 26.32 15 27 C12 23.25 12 23.25 12 21 C11.34 21 10.68 21 10 21 C9.566875 19.865625 9.13375 18.73125 8.6875 17.5625 C8.130625 16.386875 7.57375 15.21125 7 14 C6.01 13.67 5.02 13.34 4 13 C3.01 13.66 2.02 14.32 1 15 C1.01160156 14.25234375 1.02320313 13.5046875 1.03515625 12.734375 C1.04417969 11.74953125 1.05320312 10.7646875 1.0625 9.75 C1.07410156 8.77546875 1.08570313 7.8009375 1.09765625 6.796875 C1.01195577 4.34241322 0.70706066 2.33831086 0 0 Z " fill="#359838" transform="translate(427,171)"/>
<path d="M0 0 C2.39112209 3.58668313 2.23381027 5.16396569 2.1953125 9.41796875 C2.18886719 10.67158203 2.18242187 11.92519531 2.17578125 13.21679688 C2.15902344 14.52712891 2.14226562 15.83746094 2.125 17.1875 C2.11496639 18.52277987 2.1058412 19.85806689 2.09765625 21.19335938 C2.07405292 24.46242015 2.04112594 27.73112028 2 31 C0.35 31 -1.3 31 -3 31 C-3 30.34 -3 29.68 -3 29 C-2.01 29 -1.02 29 0 29 C0 19.43 0 9.86 0 0 Z " fill="#02699F" transform="translate(358,915)"/>
<path d="M0 0 C1.98 0 3.96 0 6 0 C6 5.94 6 11.88 6 18 C5.34 18 4.68 18 4 18 C4 12.72 4 7.44 4 2 C3.01 2 2.02 2 1 2 C1 8.6 1 15.2 1 22 C0.67 22 0.34 22 0 22 C0 14.74 0 7.48 0 0 Z " fill="#00669E" transform="translate(243,914)"/>
<path d="M0 0 C0.66 0 1.32 0 2 0 C2 8.25 2 16.5 2 25 C3.32 25 4.64 25 6 25 C6 25.66 6 26.32 6 27 C4.02 27 2.04 27 0 27 C0 18.09 0 9.18 0 0 Z " fill="#277DAB" transform="translate(275,919)"/>
<path d="M0 0 C4.62 0 9.24 0 14 0 C14 0.99 14 1.98 14 3 C9.545 3.495 9.545 3.495 5 4 C5 6.31 5 8.62 5 11 C4.67 11 4.34 11 4 11 C3.67 9.35 3.34 7.7 3 6 C2.01 6.66 1.02 7.32 0 8 C0 5.36 0 2.72 0 0 Z " fill="#1682AF" transform="translate(644,915)"/>
<path d="M0 0 C5.94 0 11.88 0 18 0 C18 0.99 18 1.98 18 3 C16.906875 3.12375 15.81375 3.2475 14.6875 3.375 C10.92618198 3.75464801 10.92618198 3.75464801 8 6 C7.67 5.34 7.34 4.68 7 4 C4.67843403 3.59270772 2.3431213 3.25561323 0 3 C0 2.01 0 1.02 0 0 Z " fill="#0176A7" transform="translate(269,915)"/>
<path d="M0 0 C0.66 0.33 1.32 0.66 2 1 C-0.625 4.875 -0.625 4.875 -4 6 C-4 6.99 -4 7.98 -4 9 C-10.52307692 9.36923077 -10.52307692 9.36923077 -12.9375 7.5 C-13.4634375 6.7575 -13.4634375 6.7575 -14 6 C-13.34 6 -12.68 6 -12 6 C-12.33 5.01 -12.66 4.02 -13 3 C-10.45756501 3 -7.9140408 3.0561703 -5.375 3.1875 C-4.26125 3.125625 -3.1475 3.06375 -2 3 C-1.34 2.01 -0.68 1.02 0 0 Z " fill="#016A9F" transform="translate(475,937)"/>
<path d="M0 0 C1.90318884 2.85478326 2.4619099 4.41941308 3.125 7.6875 C3.29257812 8.49574219 3.46015625 9.30398438 3.6328125 10.13671875 C3.75398437 10.75160156 3.87515625 11.36648438 4 12 C1.36 12 -1.28 12 -4 12 C-3.52494322 10.18641846 -3.04483958 8.37415821 -2.5625 6.5625 C-2.29566406 5.55316406 -2.02882813 4.54382813 -1.75390625 3.50390625 C-1 1 -1 1 0 0 Z " fill="#F1F8FA" transform="translate(928,922)"/>
<path d="M0 0 C0.66 0 1.32 0 2 0 C2.99 3.96 3.98 7.92 5 12 C2.36 12 -0.28 12 -3 12 C-2.01 8.04 -1.02 4.08 0 0 Z " fill="#F0F9FA" transform="translate(869,922)"/>
<path d="M0 0 C3.33773709 3.64116773 3.97864902 7.28607242 5 12 C2.36 12 -0.28 12 -3 12 C-2.68950274 10.56206608 -2.3765224 9.1246682 -2.0625 7.6875 C-1.88847656 6.88699219 -1.71445312 6.08648438 -1.53515625 5.26171875 C-1 3 -1 3 0 0 Z " fill="#F1F8FA" transform="translate(614,922)"/>
<path d="M0 0 C1.79068573 2.6860286 2.66055791 4.6626589 3.625 7.6875 C3.88539063 8.49574219 4.14578125 9.30398438 4.4140625 10.13671875 C4.60742188 10.75160156 4.80078125 11.36648438 5 12 C2.03 12 -0.94 12 -4 12 C-2.68 8.04 -1.36 4.08 0 0 Z " fill="#F5FAFB" transform="translate(526,922)"/>
<path d="M0 0 C1 1 2 2 3 3 C5.09989652 4.17574711 5.09989652 4.17574711 7 5 C5.68 5.33 4.36 5.66 3 6 C3 6.66 3 7.32 3 8 C4.98 8 6.96 8 9 8 C9 8.33 9 8.66 9 9 C0.07081668 9.45402627 0.07081668 9.45402627 -4 6 C-4.8125 3.8125 -4.8125 3.8125 -5 2 C-2 0 -2 0 0 0 Z " fill="#05679C" transform="translate(668,937)"/>
<path d="M0 0 C2 1 2 1 2.8515625 3.50390625 C3.10679687 4.51324219 3.36203125 5.52257812 3.625 6.5625 C3.88539063 7.57441406 4.14578125 8.58632813 4.4140625 9.62890625 C4.60742188 10.41136719 4.80078125 11.19382812 5 12 C2.36 12 -0.28 12 -3 12 C-2.68950274 10.56206608 -2.3765224 9.1246682 -2.0625 7.6875 C-1.88847656 6.88699219 -1.71445312 6.08648438 -1.53515625 5.26171875 C-1 3 -1 3 0 0 Z " fill="#F3FAFB" transform="translate(785,922)"/>
<path d="M0 0 C0.33 0.66 0.66 1.32 1 2 C-0.1796875 4.4609375 -0.1796875 4.4609375 -1.875 7.375 C-3.75252276 10.61481835 -5.18368797 13.35682965 -6 17 C-6.59070905 18.26656536 -7.21759747 19.51673324 -7.875 20.75 C-9.92877507 24.73762168 -11.49196113 28.77749116 -13 33 C-14.34658365 28.96024906 -12.97585963 26.41860479 -11.5 22.625 C-11.23098877 21.91980225 -10.96197754 21.21460449 -10.68481445 20.48803711 C-4.34592946 4.34592946 -4.34592946 4.34592946 0 0 Z " fill="#056BA3" transform="translate(114,658)"/>
<path d="M0 0 C1.90318884 2.85478326 2.4619099 4.41941308 3.125 7.6875 C3.29257812 8.49574219 3.46015625 9.30398438 3.6328125 10.13671875 C3.75398438 10.75160156 3.87515625 11.36648438 4 12 C1.36 12 -1.28 12 -4 12 C-2.68 8.04 -1.36 4.08 0 0 Z " fill="#F5FAFC" transform="translate(377,922)"/>
<path d="M0 0 C0.66 0.33 1.32 0.66 2 1 C1.54109375 1.44730469 1.0821875 1.89460937 0.609375 2.35546875 C-2.84167682 5.75576981 -6.02815512 9.16536144 -9 13 C-9.98954193 14.23760149 -10.99029858 15.46629005 -12 16.6875 C-12.7115625 17.55955078 -12.7115625 17.55955078 -13.4375 18.44921875 C-15.15588784 20.15471868 -16.79344233 21.03463102 -19 22 C-13.96545973 13.68206391 -6.9315236 6.75379223 0 0 Z " fill="#066FA7" transform="translate(140,626)"/>
<path d="M0 0 C4.67461851 -0.32613618 7.16674383 0.29417212 11 3 C10.34 4.32 9.68 5.64 9 7 C6.36 6.34 3.72 5.68 1 5 C0.67 3.35 0.34 1.7 0 0 Z " fill="#026CA1" transform="translate(672,913)"/>
<path d="M0 0 C1 3 1 3 0.10375977 5.36010742 C-0.36231689 6.26607666 -0.82839355 7.1720459 -1.30859375 8.10546875 C-1.80810547 9.08837891 -2.30761719 10.07128906 -2.82226562 11.08398438 C-3.35529297 12.10814453 -3.88832031 13.13230469 -4.4375 14.1875 C-4.96666016 15.22326172 -5.49582031 16.25902344 -6.04101562 17.32617188 C-7.35185799 19.88880966 -8.67178957 22.44633287 -10 25 C-10.66 24.67 -11.32 24.34 -12 24 C-12 23.01 -12 22.02 -12 21 C-11.34 21 -10.68 21 -10 21 C-9.731875 20.31164062 -9.46375 19.62328125 -9.1875 18.9140625 C-7.87459367 15.69225948 -6.45330024 12.53592802 -5 9.375 C-4.484375 8.24835938 -3.96875 7.12171875 -3.4375 5.9609375 C-2 3 -2 3 0 0 Z " fill="#138A60" transform="translate(567,431)"/>
<path d="M0 0 C0 2.31 0 4.62 0 7 C-4.625 9.125 -4.625 9.125 -8 8 C-7.67 6.68 -7.34 5.36 -7 4 C-7.99 3.67 -8.98 3.34 -10 3 C-8.52144705 2.49818809 -7.04213942 1.99859924 -5.5625 1.5 C-4.73878906 1.2215625 -3.91507812 0.943125 -3.06640625 0.65625 C-1 0 -1 0 0 0 Z " fill="#02629A" transform="translate(122,938)"/>
<path d="M0 0 C0.66 0.33 1.32 0.66 2 1 C-0.24923704 2.2930106 -2.49935185 3.58444977 -4.75 4.875 C-5.38421875 5.23980469 -6.0184375 5.60460937 -6.671875 5.98046875 C-9.19881165 7.42819287 -11.71749702 8.8601705 -14.328125 10.15234375 C-16.15021792 10.99575656 -16.15021792 10.99575656 -18 12.6875 C-20 14 -20 14 -22.125 13.58203125 C-23.053125 13.29392578 -23.053125 13.29392578 -24 13 C-21.50136876 11.58087449 -19.00115719 10.1646616 -16.5 8.75 C-15.80390625 8.35425781 -15.1078125 7.95851563 -14.390625 7.55078125 C-9.66226157 4.88013153 -4.94191616 2.25609216 0 0 Z " fill="#0A6FA6" transform="translate(179,601)"/>
<path d="M0 0 C0.99 0.33 1.98 0.66 3 1 C-0.96 8.92 -4.92 16.84 -9 25 C-9.66 24.34 -10.32 23.68 -11 23 C-10.34 21.02 -9.68 19.04 -9 17 C-8.34 17 -7.68 17 -7 17 C-6.7525 16.34 -6.505 15.68 -6.25 15 C-4.95477678 11.89146427 -3.46608036 8.94479466 -1.90234375 5.96484375 C-0.99577093 3.99079124 -0.45775052 2.11886583 0 0 Z " fill="#078155" transform="translate(586,391)"/>
<path d="M0 0 C0.66 0.33 1.32 0.66 2 1 C1.67 2.32 1.34 3.64 1 5 C0.34 5 -0.32 5 -1 5 C-1.0825 5.515625 -1.165 6.03125 -1.25 6.5625 C-2.57699194 10.87522382 -4.37866 14.96414389 -8.25 17.4375 C-8.8275 17.623125 -9.405 17.80875 -10 18 C-8.47146065 13.72813475 -6.28490519 10.00673137 -3.875 6.1875 C-3.50246094 5.59001953 -3.12992187 4.99253906 -2.74609375 4.37695312 C-1.8342952 2.91573749 -0.91764024 1.45755415 0 0 Z " fill="#0B8D3F" transform="translate(365,302)"/>
<path d="M0 0 C10.55067071 -0.42202683 20.24854338 -0.77124842 30 4 C30.66 4.66 31.32 5.32 32 6 C26.33652541 5.12869622 20.66410739 4.04357489 15.1484375 2.47265625 C12.19449458 1.82278881 9.26545799 1.64858206 6.25 1.4375 C5.07953125 1.35371094 3.9090625 1.26992188 2.703125 1.18359375 C1.81109375 1.12300781 0.9190625 1.06242187 0 1 C0 0.67 0 0.34 0 0 Z " fill="#05609E" transform="translate(633,32)"/>
<path d="M0 0 C0.5775 0.2475 1.155 0.495 1.75 0.75 C0.31036361 4.10915158 -1.37416589 6.46624938 -4.25 8.75 C-6.5 8.5 -6.5 8.5 -8.25 7.75 C-6.64613593 4.0076505 -4.56199942 -0.50688882 0 0 Z " fill="#0A679D" transform="translate(361.25,903.25)"/>
<path d="M0 0 C2.9375 1.1875 2.9375 1.1875 6 3 C6.875 5.6875 6.875 5.6875 7 8 C4.75 8.75 4.75 8.75 2 9 C-0.3125 7.0625 -0.3125 7.0625 -2 5 C-1.34 3.35 -0.68 1.7 0 0 Z " fill="#0C76A7" transform="translate(178,928)"/>
<path d="M0 0 C3.63 0 7.26 0 11 0 C11 1.65 11 3.3 11 5 C5.72 5 0.44 5 -5 5 C-5 4.34 -5 3.68 -5 3 C-0.71 3 3.58 3 8 3 C8.33 2.34 8.66 1.68 9 1 C6.03 1 3.06 1 0 1 C0 0.67 0 0.34 0 0 Z " fill="#01649B" transform="translate(411,941)"/>
<path d="M0 0 C0.33 0.66 0.66 1.32 1 2 C-1.69233774 8.05775992 -5.30262231 13.51768135 -9 19 C-9.66 18.34 -10.32 17.68 -11 17 C-5.555 8.585 -5.555 8.585 0 0 Z " fill="#0B8A3D" transform="translate(354,320)"/>
<path d="M0 0 C7.875 0.875 7.875 0.875 9 2 C9.04092937 4.33297433 9.04241723 6.66705225 9 9 C8.505 8.690625 8.01 8.38125 7.5 8.0625 C4.02013219 6.58355618 0.75971491 6.37597149 -3 6 C-2.34 5.34 -1.68 4.68 -1 4 C2.625 4.375 2.625 4.375 6 5 C6.33 4.01 6.66 3.02 7 2 C4.69 1.67 2.38 1.34 0 1 C0 0.67 0 0.34 0 0 Z " fill="#08649C" transform="translate(748,913)"/>
<path d="M0 0 C1.37587839 2.75175678 0.84386277 4.48020592 0.375 7.5 C0.23835938 8.4796875 0.10171875 9.459375 -0.0390625 10.46875 C-1 13 -1 13 -3.5859375 14.34375 C-4.38257813 14.5603125 -5.17921875 14.776875 -6 15 C-6 15.66 -6 16.32 -6 17 C-6.66 16.67 -7.32 16.34 -8 16 C-7.55527344 15.32453125 -7.11054688 14.6490625 -6.65234375 13.953125 C-6.08644531 13.06109375 -5.52054687 12.1690625 -4.9375 11.25 C-4.36902344 10.36828125 -3.80054688 9.4865625 -3.21484375 8.578125 C-1.76911451 6.11644439 -1.76911451 6.11644439 -2.31640625 3.671875 C-2.54199219 3.12015625 -2.76757812 2.5684375 -3 2 C-2.01 1.34 -1.02 0.68 0 0 Z " fill="#108D43" transform="translate(380,275)"/>
<path d="M0 0 C0.99 0.495 0.99 0.495 2 1 C2 1.66 2 2.32 2 3 C2.66 3 3.32 3 4 3 C4.31453125 3.56847656 4.6290625 4.13695312 4.953125 4.72265625 C5.59507812 5.88087891 5.59507812 5.88087891 6.25 7.0625 C6.92675781 8.28839844 6.92675781 8.28839844 7.6171875 9.5390625 C8.83074905 11.69879068 10.09538156 13.81673378 11.375 15.9375 C11.91125 16.948125 12.4475 17.95875 13 19 C12.67 19.66 12.34 20.32 12 21 C0 3.38297872 0 3.38297872 0 0 Z " fill="#0E772B" transform="translate(366,260)"/>
<path d="M0 0 C0.66 0 1.32 0 2 0 C3.41377341 2.63904371 4.37240135 5.07120629 5 8 C4.01 8.33 3.02 8.66 2 9 C2 9.66 2 10.32 2 11 C1.34 11 0.68 11 0 11 C-1.37432457 7.18243176 -0.67975039 3.92744671 0 0 Z " fill="#0775A7" transform="translate(873,921)"/>
<path d="M0 0 C0.33 0.66 0.66 1.32 1 2 C0.54625 2.886875 0.0925 3.77375 -0.375 4.6875 C-2.19433926 7.93584446 -2.19433926 7.93584446 -2.4375 11.625 C-3.07531461 15.45188764 -4.03557802 16.60933711 -7 19 C-6.67422369 11.83292123 -3.34556372 6.23072876 0 0 Z " fill="#0B853A" transform="translate(319,376)"/>
<path d="M0 0 C1.54296875 2.1171875 1.54296875 2.1171875 3.1875 4.875 C3.73792969 5.77992187 4.28835938 6.68484375 4.85546875 7.6171875 C5.23316406 8.40351562 5.61085938 9.18984375 6 10 C5.67 10.66 5.34 11.32 5 12 C4.52820313 11.13375 4.52820313 11.13375 4.046875 10.25 C3.61890625 9.5075 3.1909375 8.765 2.75 8 C2.33234375 7.2575 1.9146875 6.515 1.484375 5.75 C0.99453125 5.1725 0.5046875 4.595 0 4 C-3.76687864 4 -4.91190305 4.23537317 -8 6 C-3.38461538 0 -3.38461538 0 0 0 Z " fill="#669A2C" transform="translate(363,61)"/>
<path d="M0 0 C0.33 0.99 0.66 1.98 1 3 C-2.63 5.97 -6.26 8.94 -10 12 C-10.66 11.67 -11.32 11.34 -12 11 C-10.37807179 9.35113941 -8.75236228 7.7059976 -7.125 6.0625 C-6.22007812 5.14597656 -5.31515625 4.22945313 -4.3828125 3.28515625 C-2 1 -2 1 0 0 Z " fill="#048B5D" transform="translate(612,428)"/>
<path d="M0 0 C-3.07692746 2.6815279 -5.19734663 3.42087807 -9.25 3.6875 C-10.14203125 3.75324219 -11.0340625 3.81898437 -11.953125 3.88671875 C-12.62859375 3.92410156 -13.3040625 3.96148438 -14 4 C-14 4.66 -14 5.32 -14 6 C-14.99 5.67 -15.98 5.34 -17 5 C-17 4.34 -17 3.68 -17 3 C-5.47835991 -0.44419134 -5.47835991 -0.44419134 0 0 Z " fill="#0466A0" transform="translate(439,25)"/>
<path d="M0 0 C0.66 0.33 1.32 0.66 2 1 C-0.76342485 7.01451292 -4.40052273 12.45779116 -8 18 C-8.33 17.34 -8.66 16.68 -9 16 C-8.28735352 14.30419922 -8.28735352 14.30419922 -7.12890625 12.3046875 C-6.71962891 11.58925781 -6.31035156 10.87382812 -5.88867188 10.13671875 C-5.45103516 9.39035156 -5.01339844 8.64398438 -4.5625 7.875 C-4.12873047 7.12089844 -3.69496094 6.36679687 -3.24804688 5.58984375 C-2.17251034 3.72242866 -1.08715861 1.86067303 0 0 Z " fill="#098658" transform="translate(507,330)"/>
<path d="M0 0 C0.66 0.33 1.32 0.66 2 1 C0.5484451 2.67257355 -0.91144409 4.33791758 -2.375 6 C-3.18710937 6.928125 -3.99921875 7.85625 -4.8359375 8.8125 C-5.55007813 9.534375 -6.26421875 10.25625 -7 11 C-7.66 11 -8.32 11 -9 11 C-9.33 11.99 -9.66 12.98 -10 14 C-10.66 13.67 -11.32 13.34 -12 13 C-10.56354149 11.39490066 -9.12579294 9.79095576 -7.6875 8.1875 C-6.88699219 7.29417969 -6.08648438 6.40085937 -5.26171875 5.48046875 C-3.54775419 3.60073214 -1.82122396 1.77407253 0 0 Z " fill="#048556" transform="translate(523,311)"/>
<path d="M0 0 C0.66 0.33 1.32 0.66 2 1 C1.360625 1.763125 0.72125 2.52625 0.0625 3.3125 C-2.14232781 5.88246713 -2.14232781 5.88246713 -3 9 C-3.99 9.66 -4.98 10.32 -6 11 C-6.99 10.67 -7.98 10.34 -9 10 C-7.8758824 8.70756532 -6.75067408 7.41607925 -5.625 6.125 C-4.99851563 5.40570313 -4.37203125 4.68640625 -3.7265625 3.9453125 C-2.52573166 2.5923402 -1.2791655 1.2791655 0 0 Z " fill="#0F7630" transform="translate(250,238)"/>
<path d="M0 0 C0.33 0.66 0.66 1.32 1 2 C3.31 2 5.62 2 8 2 C8 2.33 8 2.66 8 3 C6.35 3 4.7 3 3 3 C3 3.66 3 4.32 3 5 C5.97 5 8.94 5 12 5 C12 5.33 12 5.66 12 6 C7.71 6 3.42 6 -1 6 C-1 3 -1 3 0 0 Z " fill="#00649A" transform="translate(372,933)"/>
<path d="M0 0 C0.66 0.33 1.32 0.66 2 1 C-2.67108853 5.3791455 -7.17076013 8.34104848 -13 11 C-13 10.34 -13 9.68 -13 9 C-11.9275 8.4225 -10.855 7.845 -9.75 7.25 C-6.68629966 5.51080849 -4.41080041 3.58937822 -2 1 C-1.34 0.67 -0.68 0.34 0 0 Z " fill="#047F52" transform="translate(762,375)"/>
<path d="M0 0 C3.63 0 7.26 0 11 0 C11 1.65 11 3.3 11 5 C8.36 5 5.72 5 3 5 C3.66 4.34 4.32 3.68 5 3 C6.32 3 7.64 3 9 3 C9 2.34 9 1.68 9 1 C6.03 1 3.06 1 0 1 C0 0.67 0 0.34 0 0 Z " fill="#01649B" transform="translate(719,941)"/>
<path d="M0 0 C1 2 1 2 0.22265625 4.3828125 C-0.16019531 5.28773438 -0.54304688 6.19265625 -0.9375 7.125 C-1.31777344 8.03507813 -1.69804687 8.94515625 -2.08984375 9.8828125 C-2.39019531 10.58148437 -2.69054687 11.28015625 -3 12 C-1.35 12.33 0.3 12.66 2 13 C-0.60582371 13.93065133 -1.64198224 14.14917407 -4.25 13.0625 C-4.8275 12.711875 -5.405 12.36125 -6 12 C-4.43358249 7.69235185 -2.31663844 3.93828536 0 0 Z " fill="#078B5B" transform="translate(408,511)"/>
<path d="M0 0 C-4.9221313 2.63365987 -9.57903298 4.64475824 -15 6 C-15 5.34 -15 4.68 -15 4 C-13.06767179 3.13419713 -11.12892806 2.28270059 -9.1875 1.4375 C-8.10855469 0.96183594 -7.02960938 0.48617188 -5.91796875 -0.00390625 C-3 -1 -3 -1 0 0 Z " fill="#0968A0" transform="translate(421,30)"/>
<path d="M0 0 C0.66 0.66 1.32 1.32 2 2 C-1.42388092 5.82669043 -4.00724943 7.72278474 -9 9 C-6.31941902 5.42589203 -3.57410797 2.68058098 0 0 Z " fill="#0675AB" transform="translate(314,800)"/>
<path d="M0 0 C2.64 0 5.28 0 8 0 C8 0.99 8 1.98 8 3 C5.36 3 2.72 3 0 3 C0 2.01 0 1.02 0 0 Z " fill="#0377A8" transform="translate(650,915)"/>
<path d="M0 0 C2.125 0.375 2.125 0.375 4 1 C2.89131683 3.21736634 1.50559539 5.03617993 0 7 C-0.99 6.01 -1.98 5.02 -3 4 C-2 2 -2 2 0 0 Z " fill="#0676A8" transform="translate(779,928)"/>
<path d="M0 0 C2 2 2 2 2.08203125 4.27734375 C1.99308594 5.15519531 1.90414063 6.03304687 1.8125 6.9375 C1.73644531 7.81277344 1.66039062 8.68804688 1.58203125 9.58984375 C1 12 1 12 -2 15 C-1.34 10.05 -0.68 5.1 0 0 Z " fill="#106DA1" transform="translate(321,925)"/>
<path d="M0 0 C0 3.58912412 -0.66436554 4.10857029 -3 6.6875 C-3.556875 7.31011719 -4.11375 7.93273437 -4.6875 8.57421875 C-5.120625 9.04472656 -5.55375 9.51523437 -6 10 C-6.33 9.01 -6.66 8.02 -7 7 C-4.66666667 4.66666667 -2.33333333 2.33333333 0 0 Z " fill="#028451" transform="translate(687,502)"/>
<path d="M0 0 C0.99 0 1.98 0 3 0 C1.34908222 4.29238623 -1.73754566 6.8793915 -5 10 C-5.66 9.67 -6.32 9.34 -7 9 C-6.57847656 8.60167969 -6.15695312 8.20335937 -5.72265625 7.79296875 C-5.17480469 7.26316406 -4.62695312 6.73335938 -4.0625 6.1875 C-3.51722656 5.66542969 -2.97195313 5.14335937 -2.41015625 4.60546875 C-0.76480908 2.94187802 -0.76480908 2.94187802 0 0 Z " fill="#068655" transform="translate(524,504)"/>
<path d="M0 0 C0.66 0.33 1.32 0.66 2 1 C0.35 4.3 -1.3 7.6 -3 11 C-3.66 10.34 -4.32 9.68 -5 9 C-4.34 7.02 -3.68 5.04 -3 3 C-2.34 3 -1.68 3 -1 3 C-0.67 2.01 -0.34 1.02 0 0 Z " fill="#108A5F" transform="translate(580,405)"/>
<path d="M0 0 C4.20626034 1.50223584 5.73900021 4.28550034 8 8 C7.67 8.66 7.34 9.32 7 10 C5.82739389 8.71372289 4.6620717 7.42080217 3.5 6.125 C2.8503125 5.40570313 2.200625 4.68640625 1.53125 3.9453125 C0 2 0 2 0 0 Z " fill="#0E8657" transform="translate(680,436)"/>
<path d="M0 0 C3 1 3 1 4.6875 4.375 C6 8 6 8 6 11 C2.90407165 7.4912812 1.25805377 4.50802601 0 0 Z " fill="#1F8133" transform="translate(325,193)"/>
<path d="M0 0 C0.33 0.99 0.66 1.98 1 3 C-0.3125 4.5 -0.3125 4.5 -2 6 C-2.99 6 -3.98 6 -5 6 C-5 5.01 -5 4.02 -5 3 C-3.35 2.67 -1.7 2.34 0 2 C0 1.34 0 0.68 0 0 Z " fill="#016EA2" transform="translate(607,939)"/>
<path d="M0 0 C0.33 0.66 0.66 1.32 1 2 C-1.47812494 5.45167403 -2.79606135 7.23163306 -7 8 C-6.02133662 6.85373678 -5.04205413 5.70800212 -4.0625 4.5625 C-3.51722656 3.92441406 -2.97195313 3.28632812 -2.41015625 2.62890625 C-1.63204305 1.73008851 -0.84063472 0.84063472 0 0 Z " fill="#036DA6" transform="translate(879,816)"/>
<path d="M0 0 C0.33 0.66 0.66 1.32 1 2 C0.06553465 4.03144641 -0.93224776 6.03533587 -2 8 C-2.99 7.67 -3.98 7.34 -5 7 C-3.35 4.69 -1.7 2.38 0 0 Z " fill="#2B9347" transform="translate(386,266)"/>
<path d="M0 0 C1.485 0.99 1.485 0.99 3 2 C3.66 2 4.32 2 5 2 C5.33 1.34 5.66 0.68 6 0 C6.33 1.32 6.66 2.64 7 4 C5.02 4 3.04 4 1 4 C0.67 2.68 0.34 1.36 0 0 Z " fill="#046498" transform="translate(936,942)"/>
<path d="M0 0 C0 1.65 0 3.3 0 5 C-1.32 5 -2.64 5 -4 5 C-4 3.68 -4 2.36 -4 1 C-1 0 -1 0 0 0 Z " fill="#0672A5" transform="translate(121,939)"/>
<path d="M0 0 C2.475 0.495 2.475 0.495 5 1 C5 2.32 5 3.64 5 5 C4.01 5 3.02 5 2 5 C2 3.68 2 2.36 2 1 C1.34 0.67 0.68 0.34 0 0 Z " fill="#026199" transform="translate(677,914)"/>
<path d="M0 0 C0.66 0 1.32 0 2 0 C2 0.66 2 1.32 2 2 C3.65 2 5.3 2 7 2 C6.67 2.66 6.34 3.32 6 4 C3.36 3.67 0.72 3.34 -2 3 C-1.34 2.01 -0.68 1.02 0 0 Z " fill="#1076AC" transform="translate(552,258)"/>
</svg>
